<svg width="32" height="32" viewBox="0 0 32 32" fill="none" xmlns="http://www.w3.org/2000/svg">
<g clip-path="url(#clip0_1_2)">
<path fill-rule="evenodd" clip-rule="evenodd" d="M17.5779 11.0955L23.3668 7.71859V14.4724L17.5779 11.0955ZM23.3668 25.5678L15.6482 30.0704L7.92965 25.5678V17.6884L15.6482 22.191L23.3668 17.6884V25.5678ZM7.92965 7.71859L13.7186 11.0955L7.92965 14.4724V7.71859ZM16.6131 12.7035L22.402 16.0804L16.6131 19.4573V12.7035ZM14.6834 19.4573L8.89447 16.0804L14.6834 12.7035V19.4573ZM22.402 6.11055L15.6482 9.96985L8.89447 6.11055L15.6482 2.09045L22.402 6.11055ZM6 5.46734V26.5327L15.6482 32L25.2965 26.5327V5.46734L15.6482 0L6 5.46734Z" fill="white"/>
</g>
<defs>
<clipPath id="clip0_1_2">
<rect width="32" height="32" fill="white"/>
</clipPath>
</defs>
</svg>
