<svg width="1512" height="1223" viewBox="0 0 1512 1223" fill="none" xmlns="http://www.w3.org/2000/svg">
<path opacity="0.0144928" d="M1329.5 985.896C1339.14 991.016 1351.01 989.136 1358.6 981.286L1532.77 801.154C1537.25 796.512 1539.73 790.286 1539.65 783.829L1535.27 420.228C1535.21 415.15 1533.57 410.217 1530.58 406.111L1344.14 149.826C1338.72 142.38 1329.59 138.6 1320.49 140.04L1105.78 174.048C1096.68 175.489 1089.16 181.906 1086.31 190.662L988.192 492.017C986.62 496.846 986.587 502.043 988.098 506.892L1096.29 854.051C1098.21 860.215 1102.49 865.372 1108.19 868.4L1329.5 985.896Z" stroke="url(#paint0_linear_1_19)" stroke-opacity="0.3"/>
<path opacity="0.0289855" d="M1289.23 984.524C1298.58 990.112 1310.49 988.86 1318.47 981.451L1500.76 812.22C1505.5 807.82 1508.3 801.725 1508.57 795.264L1523.25 435.322C1523.46 430.233 1522.08 425.205 1519.3 420.939L1347.68 157.803C1342.65 150.101 1333.74 145.86 1324.6 146.821L1109.71 169.407C1100.56 170.368 1092.72 176.37 1089.41 184.948L976.253 478.015C974.418 482.767 974.11 487.972 975.371 492.907L1064.57 841.929C1066.18 848.195 1070.19 853.573 1075.74 856.891L1289.23 984.524Z" stroke="url(#paint1_linear_1_19)" stroke-opacity="0.3"/>
<path opacity="0.0434783" d="M1249.28 981.935C1258.31 987.973 1270.23 987.348 1278.58 980.4L1468.33 822.421C1473.3 818.278 1476.44 812.332 1477.04 805.884L1510.41 450.592C1510.88 445.505 1509.76 440.396 1507.19 435.98L1350.6 166.835C1345.98 158.897 1337.31 154.209 1328.14 154.689L1113.68 165.928C1104.51 166.409 1096.38 171.978 1092.62 180.355L965.017 464.394C962.923 469.055 962.339 474.253 963.345 479.262L1033.66 829.12C1034.94 835.47 1038.68 841.055 1044.06 844.656L1249.28 981.935Z" stroke="url(#paint2_linear_1_19)" stroke-opacity="0.3"/>
<path opacity="0.057971" d="M1209.72 978.157C1218.41 984.628 1230.31 984.628 1238.99 978.157L1435.52 831.744C1440.73 827.869 1444.18 822.09 1445.13 815.673L1496.72 465.99C1497.47 460.92 1496.6 455.743 1494.26 451.188L1352.85 176.878C1348.65 168.726 1340.24 163.604 1331.07 163.604L1117.64 163.604C1108.47 163.604 1100.07 168.726 1095.86 176.878L954.457 451.188C952.109 455.743 951.248 460.92 951.996 465.99L1003.59 815.673C1004.54 822.09 1007.99 827.869 1013.19 831.744L1209.72 978.157Z" stroke="url(#paint3_linear_1_19)" stroke-opacity="0.3"/>
<path opacity="0.0724638" d="M1170.6 973.223C1178.93 980.106 1190.78 980.727 1199.77 974.752L1402.4 840.176C1407.81 836.582 1411.57 830.986 1412.86 824.619L1482.19 481.471C1483.21 476.432 1482.61 471.2 1480.49 466.516L1354.38 187.885C1350.6 179.541 1342.49 174.001 1333.34 173.521L1121.52 162.42C1112.37 161.941 1103.72 166.603 1099.1 174.506L944.547 438.429C941.949 442.865 940.813 448.006 941.298 453.124L974.376 801.639C974.99 808.106 978.147 814.064 983.153 818.204L1170.6 973.223Z" stroke="url(#paint4_linear_1_19)" stroke-opacity="0.3"/>
<path opacity="0.0869565" d="M1132 967.168C1139.94 974.443 1151.7 975.679 1160.98 970.214L1369.01 847.708C1374.61 844.407 1378.68 839.011 1380.3 832.711L1466.82 496.987C1468.11 491.993 1467.78 486.72 1465.9 481.92L1355.14 199.809C1351.8 191.296 1343.99 185.353 1334.9 184.397L1125.26 162.363C1116.16 161.407 1107.29 165.597 1102.25 173.229L935.26 426.147C932.418 430.451 931.007 435.542 931.228 440.694L946.055 787.07C946.333 793.57 949.185 799.693 953.983 804.088L1132 967.168Z" stroke="url(#paint5_linear_1_19)" stroke-opacity="0.3"/>
<path opacity="0.101449" d="M1093.95 960.032C1101.49 967.677 1113.13 969.521 1122.67 964.58L1335.39 854.336C1341.18 851.338 1345.53 846.158 1347.49 839.943L1450.61 512.494C1452.17 507.559 1452.12 502.259 1450.47 497.352L1355.09 212.598C1352.19 203.938 1344.71 197.61 1335.69 196.182L1128.8 163.413C1119.78 161.984 1110.71 165.691 1105.27 173.031L926.564 414.373C923.485 418.531 921.802 423.557 921.755 428.731L918.646 772.021C918.587 778.537 921.126 784.808 925.701 789.447L1093.95 960.032Z" stroke="url(#paint6_linear_1_19)" stroke-opacity="0.3"/>
<path opacity="0.115942" d="M1056.52 951.854C1063.64 959.848 1075.13 962.29 1084.89 957.885L1301.6 860.055C1307.55 857.37 1312.18 852.422 1314.47 846.31L1433.58 527.945C1435.4 523.083 1435.62 517.769 1434.23 512.769L1354.19 226.2C1351.74 217.416 1344.61 210.722 1335.69 208.826L1132.08 165.547C1123.16 163.651 1113.92 166.867 1108.11 173.894L918.43 403.133C915.121 407.133 913.167 412.08 912.851 417.261L892.169 756.546C891.772 763.061 893.99 769.464 898.332 774.337L1056.52 951.854Z" stroke="url(#paint7_linear_1_19)" stroke-opacity="0.3"/>
<path opacity="0.130435" d="M1019.76 942.681C1026.45 951 1037.75 954.03 1047.71 950.17L1267.7 864.866C1273.79 862.502 1278.69 857.802 1281.3 851.809L1415.72 543.295C1417.8 538.52 1418.3 533.207 1417.16 528.126L1352.4 240.559C1350.4 231.675 1343.63 224.634 1334.84 222.277L1135.04 168.743C1126.25 166.386 1116.87 169.102 1110.69 175.795L910.824 392.454C907.292 396.282 905.073 401.135 904.487 406.311L866.64 740.701C865.905 747.196 867.796 753.716 871.892 758.81L1019.76 942.681Z" stroke="url(#paint8_linear_1_19)" stroke-opacity="0.3"/>
<path opacity="0.144928" d="M983.711 932.558C989.953 941.178 1001.05 944.783 1011.16 941.478L1233.72 868.77C1239.94 866.736 1245.09 862.297 1248.02 856.441L1397.05 558.5C1399.39 553.827 1400.17 548.528 1399.28 543.378L1349.68 255.62C1348.13 246.659 1341.75 239.291 1333.11 236.481L1137.64 172.97C1128.99 170.16 1119.5 172.371 1112.98 178.713L903.712 382.357C899.967 386.002 897.485 390.748 896.629 395.903L842.072 724.541C841 730.999 842.557 737.619 846.397 742.922L983.711 932.558Z" stroke="url(#paint9_linear_1_19)" stroke-opacity="0.3"/>
<path opacity="0.15942" d="M948.426 921.534C954.207 930.431 965.058 934.597 975.307 931.852L1199.71 871.772C1206.05 870.076 1211.44 865.911 1214.68 860.21L1377.59 573.518C1380.18 568.959 1381.24 563.689 1380.61 558.483L1346.01 271.324C1344.92 262.31 1338.94 254.636 1330.46 251.382L1139.82 178.2C1131.34 174.946 1121.76 176.646 1114.92 182.618L897.061 372.866C893.112 376.315 890.373 380.941 889.248 386.062L818.477 708.122C817.069 714.527 818.288 721.229 821.861 726.728L948.426 921.534Z" stroke="url(#paint10_linear_1_19)" stroke-opacity="0.3"/>
<path opacity="0.173913" d="M913.946 909.66C919.253 918.809 929.832 923.519 940.183 921.341L1165.74 873.88C1172.16 872.528 1177.78 868.651 1181.32 863.12L1357.34 588.304C1360.18 583.874 1361.51 578.647 1361.15 573.397L1341.36 287.612C1340.73 278.569 1335.16 270.61 1326.88 266.923L1141.52 184.398C1133.24 180.71 1123.6 181.897 1116.46 187.483L890.836 364C886.691 367.242 883.701 371.732 882.307 376.806L795.859 691.5C794.119 697.834 794.995 704.601 798.291 710.283L913.946 909.66Z" stroke="url(#paint11_linear_1_19)" stroke-opacity="0.3"/>
<path opacity="0.188406" d="M880.307 896.989C885.13 906.364 895.411 911.603 905.831 909.994L1131.83 875.105C1138.33 874.101 1144.16 870.524 1148 865.179L1336.33 602.82C1339.41 598.53 1341.02 593.361 1340.92 588.081L1335.7 304.424C1335.53 295.375 1330.39 287.155 1322.32 283.046L1142.71 191.529C1134.65 187.42 1124.97 188.091 1117.55 193.275L884.999 355.775C880.67 358.8 877.435 363.142 875.774 368.154L774.223 674.732C772.154 680.978 772.684 687.794 775.694 693.644L880.307 896.989Z" stroke="url(#paint12_linear_1_19)" stroke-opacity="0.3"/>
<path opacity="0.202899" d="M847.547 883.576C851.877 893.152 861.832 898.899 872.29 897.861L1098.04 875.458C1104.6 874.807 1110.62 871.541 1114.74 866.399L1314.58 617.024C1317.89 612.889 1319.78 607.79 1319.95 602.494L1329.01 321.699C1329.3 312.668 1324.6 304.209 1316.78 299.691L1143.33 199.555C1135.51 195.037 1125.83 195.193 1118.16 199.961L879.513 348.209C875.012 351.005 871.539 355.186 869.614 360.123L753.568 657.875C751.175 664.015 751.357 670.861 754.072 676.866L847.547 883.576Z" stroke="url(#paint13_linear_1_19)" stroke-opacity="0.3"/>
<path opacity="0.217391" d="M815.696 869.477C819.525 879.226 829.129 885.463 839.593 884.996L1064.42 874.954C1071.01 874.66 1077.21 871.716 1081.61 866.79L1292.11 630.878C1295.65 626.91 1297.8 621.897 1298.24 616.596L1321.29 339.375C1322.03 330.385 1317.78 321.712 1310.21 316.798L1143.35 208.436C1135.79 203.523 1126.13 203.165 1118.22 207.504L874.342 341.314C869.68 343.872 865.976 347.878 863.791 352.727L733.892 640.983C731.18 647.002 731.012 653.86 733.425 660.005L815.696 869.477Z" stroke="url(#paint14_linear_1_19)" stroke-opacity="0.3"/>
<path opacity="0.231884" d="M784.785 854.749C788.107 864.646 797.335 871.351 807.774 871.452L1031 873.612C1037.61 873.676 1043.97 871.064 1048.63 866.37L1268.94 644.345C1272.7 640.556 1275.12 635.642 1275.83 630.352L1312.51 357.39C1313.71 348.465 1309.91 339.6 1302.63 334.307L1142.72 218.13C1135.44 212.836 1125.83 211.967 1117.72 215.866L869.449 335.101C864.637 337.412 860.711 341.231 858.269 345.978L715.19 624.112C712.165 629.992 711.646 636.846 713.75 643.115L784.785 854.749Z" stroke="url(#paint15_linear_1_19)" stroke-opacity="0.3"/>
<path opacity="0.246377" d="M754.837 839.451C757.646 849.468 766.476 856.619 776.859 857.284L997.833 871.449C1004.44 871.873 1010.94 869.602 1015.85 865.153L1245.09 657.39C1249.06 653.792 1251.75 648.991 1252.73 643.723L1302.66 375.682C1304.31 366.844 1300.98 357.813 1294 352.155L1141.41 228.593C1134.42 222.935 1124.9 221.559 1116.59 225.007L864.792 329.58C859.844 331.635 855.705 335.256 853.011 339.887L697.45 607.316C694.119 613.042 693.249 619.873 695.038 626.251L754.837 839.451Z" stroke="url(#paint16_linear_1_19)" stroke-opacity="0.3"/>
<path opacity="0.26087" d="M725.875 823.642C728.169 833.753 736.579 841.325 746.874 842.55L964.956 868.488C971.545 869.272 978.171 867.349 983.317 863.16L1220.61 669.979C1224.78 666.583 1227.72 661.909 1228.97 656.678L1291.75 394.189C1293.84 385.46 1290.99 376.289 1284.32 370.283L1139.38 239.78C1132.71 233.774 1123.29 231.896 1114.82 234.885L860.337 324.758C855.265 326.549 850.923 329.959 847.982 334.462L680.663 590.649C677.035 596.205 675.815 602.995 677.283 609.467L725.875 823.642Z" stroke="url(#paint17_linear_1_19)" stroke-opacity="0.3"/>
<path opacity="0.275362" d="M697.917 807.383C699.693 817.56 707.662 825.53 717.84 827.306L932.408 864.753C938.957 865.896 945.689 864.329 951.06 860.411L1195.51 682.078C1199.88 678.896 1203.06 674.362 1204.58 669.181L1279.77 412.848C1282.29 404.251 1279.92 394.963 1273.58 388.628L1136.59 251.642C1130.26 245.307 1120.97 242.935 1112.37 245.457L856.042 320.639C850.86 322.159 846.326 325.347 843.144 329.709L664.812 574.163C660.894 579.533 659.326 586.265 660.469 592.814L697.917 807.383Z" stroke="url(#paint18_linear_1_19)" stroke-opacity="0.3"/>
<path opacity="0.289855" d="M670.977 790.733C672.235 800.95 679.745 809.291 689.775 811.61L900.23 860.268C906.718 861.768 913.538 860.563 919.119 856.928L1169.83 693.659C1174.38 690.701 1177.81 686.32 1179.6 681.202L1266.71 431.597C1269.66 423.154 1267.77 413.775 1261.79 407.13L1133.03 264.132C1127.05 257.487 1117.92 254.629 1109.22 256.677L851.871 317.227C846.594 318.468 841.878 321.425 838.462 325.633L649.88 557.909C645.682 563.079 643.77 569.735 644.584 576.345L670.977 790.733Z" stroke="url(#paint19_linear_1_19)" stroke-opacity="0.3"/>
<path opacity="0.304348" d="M645.067 773.755C645.807 783.984 652.84 792.67 662.693 795.521L868.455 855.062C874.863 856.917 881.751 856.077 887.527 852.738L1143.6 704.693C1148.32 701.969 1151.99 697.754 1154.04 692.713L1252.6 450.376C1255.96 442.107 1254.56 432.664 1248.94 425.727L1128.67 277.201C1123.05 270.264 1114.1 266.931 1105.32 268.502L847.784 314.522C842.427 315.48 837.541 318.194 833.897 322.236L635.845 541.937C631.378 546.893 629.125 553.455 629.607 560.11L645.067 773.755Z" stroke="url(#paint20_linear_1_19)" stroke-opacity="0.3"/>
<path opacity="0.318841" d="M620.193 756.508C620.418 766.723 626.96 775.727 636.606 779.097L837.119 849.163C843.428 851.368 850.365 850.899 856.321 847.866L1116.86 715.154C1121.73 712.674 1125.63 708.637 1127.94 703.685L1237.42 469.124C1241.19 461.05 1240.28 451.568 1235.04 444.36L1123.47 290.798C1118.24 283.59 1109.5 279.793 1100.66 280.882L843.745 312.524C838.322 313.192 833.277 315.654 829.414 319.518L622.687 526.296C617.961 531.023 615.372 537.475 615.519 544.157L620.193 756.508Z" stroke="url(#paint21_linear_1_19)" stroke-opacity="0.3"/>
<path opacity="0.333333" d="M596.359 739.054C596.072 749.229 602.107 758.521 611.519 762.398L806.251 842.602C812.443 845.152 819.408 845.057 825.528 842.339L1089.63 725.017C1094.65 722.789 1098.77 718.943 1101.34 714.094L1221.21 487.782C1225.37 479.924 1224.95 470.428 1220.1 462.97L1117.43 304.871C1112.59 297.414 1104.09 293.166 1095.22 293.772L839.714 311.228C834.24 311.603 829.049 313.803 824.975 317.478L610.375 511.032C605.402 515.516 602.482 521.841 602.293 528.535L596.359 739.054Z" stroke="url(#paint22_linear_1_19)" stroke-opacity="0.3"/>
<path opacity="0.347826" d="M573.568 721.452C572.775 731.561 578.29 741.114 587.441 745.481L775.887 835.411C781.942 838.301 788.916 838.581 795.183 836.187L1061.97 734.26C1067.11 732.293 1071.45 728.649 1074.27 723.916L1203.97 506.291C1208.51 498.668 1208.57 489.184 1204.14 481.498L1110.53 319.369C1106.09 311.684 1097.85 306.998 1088.97 307.121L835.657 310.631C830.147 310.707 824.824 312.638 820.548 316.113L598.886 496.189C593.679 500.419 590.434 506.6 589.909 513.288L573.568 721.452Z" stroke="url(#paint23_linear_1_19)" stroke-opacity="0.3"/>
<path opacity="0.362319" d="M551.813 703.764C550.519 713.78 555.504 723.564 564.368 728.405L746.05 827.624C751.949 830.846 758.912 831.502 765.309 829.44L1033.89 742.863C1039.15 741.165 1043.69 737.735 1046.76 733.13L1185.71 524.596C1190.62 517.226 1191.17 507.779 1187.15 499.888L1102.75 334.24C1098.73 326.349 1090.76 321.242 1081.91 320.883L831.533 310.723C826.004 310.499 820.562 312.153 816.093 315.416L588.184 481.812C582.755 485.775 579.194 491.794 578.333 498.46L551.813 703.764Z" stroke="url(#paint24_linear_1_19)" stroke-opacity="0.3"/>
<path opacity="0.376812" d="M531.089 686.047C529.303 695.946 533.748 705.931 542.3 711.227L716.768 819.275C722.493 822.82 729.425 823.853 735.935 822.13L1005.44 750.808C1010.81 749.386 1015.54 746.18 1018.85 741.716L1166.47 542.64C1171.73 535.541 1172.77 526.157 1169.17 518.083L1094.08 349.43C1090.49 341.356 1082.82 335.844 1074.02 335.006L827.308 311.497C821.776 310.97 816.229 312.339 811.577 315.38L578.239 467.939C572.603 471.624 568.732 477.467 567.536 484.094L531.089 686.047Z" stroke="url(#paint25_linear_1_19)" stroke-opacity="0.3"/>
<path opacity="0.391304" d="M511.388 668.36C509.118 678.117 513.016 688.273 521.232 694.005L688.066 810.399C693.599 814.26 700.48 815.667 707.085 814.29L976.667 758.079C982.131 756.94 987.043 753.969 990.589 749.658L1146.26 560.371C1151.87 553.559 1153.37 544.262 1150.21 536.029L1084.52 364.889C1081.36 356.655 1074.02 350.755 1065.3 349.442L822.949 312.941C817.429 312.11 811.791 313.188 806.968 315.998L569.017 454.611C563.187 458.007 559.016 463.657 557.487 470.229L511.388 668.36Z" stroke="url(#paint26_linear_1_19)" stroke-opacity="0.3"/>
<path opacity="0.405797" d="M492.696 650.76C489.952 660.351 493.298 670.648 501.155 676.795L659.965 801.034C665.289 805.2 672.098 806.98 678.78 805.954L947.602 764.664C953.144 763.813 958.227 761.087 962.001 756.94L1125.12 577.737C1131.05 571.229 1133.02 562.043 1130.31 553.674L1074.06 380.562C1071.34 372.192 1064.34 365.924 1055.72 364.141L818.42 315.043C812.929 313.907 807.215 314.688 802.231 317.257L560.48 441.863C554.471 444.96 550.009 450.403 548.15 456.902L492.696 650.76Z" stroke="url(#paint27_linear_1_19)" stroke-opacity="0.3"/>
<path opacity="0.42029" d="M474.995 633.304C471.789 642.705 474.578 653.112 482.055 659.652L632.483 791.218C637.582 795.677 644.299 797.826 651.039 797.155L918.286 770.551C923.891 769.993 929.133 767.521 933.128 763.551L1103.07 594.687C1109.3 588.498 1111.74 579.449 1109.47 570.967L1062.7 396.399C1060.42 387.917 1053.79 381.3 1045.3 379.055L813.686 317.788C808.241 316.347 802.466 316.827 797.333 319.146L552.588 429.73C546.415 432.519 541.673 437.739 539.487 444.15L474.995 633.304Z" stroke="url(#paint28_linear_1_19)" stroke-opacity="0.3"/>
<path opacity="0.434783" d="M458.268 616.044C454.613 625.234 456.842 635.72 463.919 642.629L605.64 780.987C610.496 785.728 617.102 788.242 623.882 787.93L888.761 775.731C894.414 775.471 899.802 773.262 904.011 769.479L1080.15 611.175C1086.67 605.319 1089.56 596.429 1087.74 587.859L1050.44 412.347C1048.61 403.777 1042.36 396.832 1034.02 394.133L808.717 321.159C803.334 319.415 797.513 319.589 792.243 321.65L545.302 418.242C538.981 420.714 533.969 425.698 531.461 432.005L458.268 616.044Z" stroke="url(#paint29_linear_1_19)" stroke-opacity="0.3"/>
<path opacity="0.449275" d="M442.491 599.035C438.401 607.991 440.069 618.526 446.727 625.78L579.448 770.381C584.046 775.392 590.52 778.265 597.321 778.314L859.066 780.198C864.751 780.239 870.273 778.301 874.687 774.717L1056.4 627.156C1063.18 621.646 1066.52 612.938 1065.15 604.305L1037.28 428.356C1035.91 419.722 1030.05 412.472 1021.89 409.328L803.481 325.139C798.176 323.095 792.325 322.958 786.931 324.754L538.579 407.43C532.126 409.578 526.857 414.311 524.031 420.497L442.491 599.035Z" stroke="url(#paint30_linear_1_19)" stroke-opacity="0.3"/>
<path opacity="0.463768" d="M427.641 582.326C423.13 591.028 424.239 601.58 430.461 609.154L553.921 759.44C558.247 764.706 564.571 767.932 571.373 768.343L829.243 783.947C834.945 784.292 840.589 782.634 845.198 779.259L1031.84 642.586C1038.87 637.434 1042.64 628.931 1041.73 620.258L1023.24 444.375C1022.33 435.702 1016.88 428.168 1008.92 424.591L797.948 329.709C792.738 327.366 786.873 326.918 781.367 328.441L532.376 397.318C525.808 399.135 520.294 403.605 517.158 409.655L427.641 582.326Z" stroke="url(#paint31_linear_1_19)" stroke-opacity="0.3"/>
<path opacity="0.478261" d="M413.689 565.967C408.773 574.394 409.326 584.935 415.095 592.802L529.071 748.202C533.109 753.708 539.262 757.28 546.047 758.054L799.332 786.977C805.035 787.629 810.786 786.257 815.581 783.1L1006.52 657.426C1013.78 652.643 1017.97 644.366 1017.51 635.679L1008.32 460.355C1007.87 451.668 1002.84 443.873 995.115 439.876L792.089 334.848C786.991 332.211 781.128 331.447 775.523 332.691L526.65 387.931C519.983 389.411 514.237 393.606 510.796 399.504L413.689 565.967Z" stroke="url(#paint32_linear_1_19)" stroke-opacity="0.3"/>
<path opacity="0.492754" d="M400.605 550.005C395.301 558.138 395.301 568.637 400.605 576.77L504.903 736.708C508.641 742.439 514.605 746.347 521.353 747.484L769.373 789.289C775.062 790.248 780.907 789.168 785.878 786.241L980.477 671.638C987.954 667.234 992.544 659.204 992.544 650.526L992.544 476.248C992.544 467.571 987.954 459.541 980.477 455.137L785.878 340.534C780.907 337.607 775.062 336.527 769.373 337.486L521.353 379.291C514.605 380.428 508.641 384.335 504.903 390.067L400.605 550.005Z" stroke="url(#paint33_linear_1_19)" stroke-opacity="0.3"/>
<path opacity="0.507246" d="M388.357 534.484C382.683 542.306 382.137 552.732 386.962 561.104L481.425 724.996C484.85 730.937 490.607 735.171 497.298 736.669L739.408 790.884C745.066 792.151 750.99 791.37 756.127 788.68L953.763 685.186C961.43 681.171 966.41 673.408 966.863 664.764L975.917 492.008C976.37 483.364 972.229 475.123 965.023 470.328L779.288 346.743C774.46 343.531 768.65 342.135 762.89 342.804L516.441 371.414C509.629 372.204 503.461 375.813 499.434 381.364L388.357 534.484Z" stroke="url(#paint34_linear_1_19)" stroke-opacity="0.3"/>
<path opacity="0.521739" d="M376.91 519.446C370.884 526.94 369.799 537.265 374.135 545.848L458.64 713.106C461.739 719.24 467.271 723.79 473.888 725.647L709.475 791.767C715.086 793.342 721.075 792.865 726.367 790.421L926.417 698.04C934.255 694.42 939.609 686.943 940.512 678.358L958.46 507.588C959.363 499.003 955.68 490.576 948.766 485.406L772.294 353.45C767.627 349.96 761.867 348.248 756.051 348.622L511.865 364.316C505.007 364.757 498.65 368.057 494.344 373.412L376.91 519.446Z" stroke="url(#paint35_linear_1_19)" stroke-opacity="0.3"/>
<path opacity="0.536232" d="M366.227 504.932C359.869 512.082 358.254 522.278 362.092 531.042L436.55 701.079C439.312 707.387 444.602 712.241 451.124 714.453L679.614 791.946C685.163 793.828 691.202 793.659 696.637 791.47L898.488 710.169C906.475 706.953 912.186 699.78 913.533 691.276L940.194 522.945C941.541 514.441 938.325 505.855 931.724 500.328L764.875 360.631C760.383 356.869 754.691 354.843 748.833 354.918L507.579 358.01C500.693 358.099 494.162 361.081 489.585 366.227L366.227 504.932Z" stroke="url(#paint36_linear_1_19)" stroke-opacity="0.3"/>
<path opacity="0.550725" d="M356.267 490.98C349.597 497.77 347.463 507.809 350.795 516.725L415.152 688.952C417.568 695.416 422.598 700.563 429.006 703.125L649.863 791.43C655.333 793.617 661.407 793.76 666.973 791.833L870.022 721.549C878.136 718.74 884.188 711.889 885.973 703.491L921.141 538.037C922.926 529.638 920.185 520.918 913.915 515.052L757.007 368.257C752.705 364.233 747.098 361.893 741.212 361.666L503.532 352.506C496.636 352.241 489.948 354.896 485.111 359.819L356.267 490.98Z" stroke="url(#paint37_linear_1_19)" stroke-opacity="0.3"/>
<path opacity="0.565217" d="M346.991 477.622C340.03 484.04 337.389 493.894 340.209 502.933L394.444 676.763C396.504 683.366 401.259 688.79 407.535 691.697L620.261 790.23C625.635 792.719 631.729 793.177 637.414 791.52L841.069 732.155C849.289 729.759 855.662 723.246 857.878 714.975L901.327 552.823C903.543 544.552 901.28 535.725 895.36 529.54L748.672 376.302C744.576 372.023 739.07 369.373 733.171 368.842L499.679 347.811C492.791 347.19 485.961 349.51 480.875 354.198L346.991 477.622Z" stroke="url(#paint38_linear_1_19)" stroke-opacity="0.3"/>
<path opacity="0.57971" d="M338.358 464.893C331.127 470.926 327.993 480.57 330.297 489.701L374.423 664.553C376.119 671.274 380.583 676.962 386.708 680.207L590.845 788.359C596.108 791.147 602.205 791.923 607.998 790.542L811.68 741.968C819.984 739.988 826.659 733.827 829.297 725.708L880.779 567.264C883.417 559.145 881.638 550.237 876.084 543.754L739.852 384.736C735.978 380.214 730.589 377.257 724.692 376.42L495.972 343.928C489.109 342.953 482.154 344.931 476.831 349.371L338.358 464.893Z" stroke="url(#paint39_linear_1_19)" stroke-opacity="0.3"/>
<path opacity="0.594203" d="M330.322 452.82C322.843 458.457 319.232 467.865 321.018 477.059L355.079 652.355C356.404 659.175 360.562 665.112 366.519 668.688L561.651 785.833C566.786 788.916 572.872 790.011 578.759 788.911L781.904 750.971C790.271 749.408 797.228 743.614 800.279 735.668L859.526 581.324C862.576 573.378 861.283 564.417 856.11 557.657L730.531 393.531C726.892 388.775 721.636 385.516 715.758 384.371L492.361 340.858C485.542 339.53 478.479 341.159 472.931 345.341L330.322 452.82Z" stroke="url(#paint40_linear_1_19)" stroke-opacity="0.3"/>
<path opacity="0.608696" d="M322.839 441.431C315.134 446.662 311.062 455.81 312.33 465.036L336.404 640.209C337.352 647.108 341.191 653.276 346.961 657.175L532.713 782.669C537.704 786.041 543.763 787.457 549.732 786.644L751.793 759.15C760.202 758.006 767.42 752.591 770.871 744.839L837.598 594.969C841.049 587.216 840.243 578.23 835.467 571.215L720.694 402.657C717.304 397.678 712.198 394.122 706.352 392.669L488.799 338.601C482.041 336.921 474.888 338.197 469.128 342.108L322.839 441.431Z" stroke="url(#paint41_linear_1_19)" stroke-opacity="0.3"/>
<path opacity="0.623188" d="M315.862 430.748C307.954 435.565 303.438 444.429 304.189 453.658L318.386 628.149C318.952 635.105 322.458 641.489 328.024 645.7L504.064 778.887C508.897 782.542 514.912 784.278 520.949 783.758L721.397 766.494C729.826 765.768 737.284 760.745 741.124 753.207L815.026 608.166C818.867 600.628 818.547 591.642 814.18 584.396L710.327 412.083C707.199 406.893 702.259 403.047 696.461 401.287L485.237 337.152C478.559 335.124 471.333 336.04 465.373 339.671L315.862 430.748Z" stroke="url(#paint42_linear_1_19)" stroke-opacity="0.3"/>
<path opacity="0.637681" d="M309.345 420.792C301.257 425.188 296.316 433.746 296.553 442.948L301.014 616.209C301.194 623.202 304.355 629.784 309.7 634.297L475.74 774.506C480.397 778.438 486.353 780.494 492.445 780.27L690.77 772.996C699.197 772.687 706.873 768.065 711.09 760.762L791.848 620.884C796.065 613.581 796.229 604.623 792.283 597.17L699.42 421.778C696.568 416.391 691.81 412.26 686.075 410.194L481.631 336.503C475.05 334.131 467.77 334.685 461.624 338.025L309.345 420.792Z" stroke="url(#paint43_linear_1_19)" stroke-opacity="0.3"/>
<path opacity="0.652174" d="M303.239 411.58C294.994 415.549 289.649 423.781 289.376 432.927L284.271 604.422C284.063 611.431 286.867 618.192 291.974 622.996L447.768 769.549C452.235 773.751 458.116 776.125 464.248 776.202L659.962 778.65C668.367 778.755 676.238 774.545 680.816 767.496L768.096 633.097C772.674 626.048 773.318 617.144 769.804 609.509L687.963 431.711C685.399 426.14 680.838 421.733 675.182 419.361L477.933 336.645C471.467 333.933 464.149 334.122 457.831 337.163L303.239 411.58Z" stroke="url(#paint44_linear_1_19)" stroke-opacity="0.3"/>
<path opacity="0.666667" d="M297.496 403.128C289.119 406.665 283.389 414.551 282.614 423.611L268.142 592.822C267.544 599.824 269.981 606.747 274.834 611.829L420.18 764.041C424.441 768.505 430.231 771.195 436.39 771.575L629.026 783.457C637.387 783.973 645.432 780.181 650.355 773.404L743.807 644.778C748.731 638.002 749.851 629.179 746.777 621.387L675.949 441.851C673.684 436.11 669.336 431.436 663.775 428.762L474.098 337.566C467.764 334.521 460.428 334.342 453.953 337.076L297.496 403.128Z" stroke="url(#paint45_linear_1_19)" stroke-opacity="0.3"/>
<path opacity="0.681159" d="M292.069 395.446C283.581 398.548 277.491 406.069 276.221 415.016L252.609 581.437C251.62 588.412 253.68 595.475 258.265 600.824L393.003 758.008C397.045 762.723 402.727 765.727 408.9 766.413L598.012 787.417C606.309 788.339 614.504 784.972 619.757 778.485L719.02 655.905C724.274 649.418 725.862 640.702 723.236 632.779L663.372 452.165C661.418 446.27 657.298 441.337 651.845 438.364L470.083 339.25C463.898 335.878 456.561 335.331 449.944 337.749L292.069 395.446Z" stroke="url(#paint46_linear_1_19)" stroke-opacity="0.3"/>
<path opacity="0.695652" d="M286.906 388.543C278.332 391.208 271.903 398.348 270.149 407.153L237.651 570.299C236.272 577.225 237.948 584.409 242.249 590.009L366.263 751.475C370.071 756.433 375.63 759.748 381.801 760.741L566.971 790.535C575.183 791.857 583.505 788.922 589.07 782.74L693.772 666.457C699.338 660.276 701.387 651.693 699.214 643.665L650.227 462.624C648.594 456.589 644.717 451.408 639.388 448.139L465.844 341.682C459.825 337.989 452.505 337.074 445.762 339.17L286.906 388.543Z" stroke="url(#paint47_linear_1_19)" stroke-opacity="0.3"/>
<path opacity="0.710145" d="M281.959 382.424C273.323 384.651 266.579 391.395 264.353 400.031L223.248 559.435C221.48 566.29 222.764 573.574 226.768 579.411L339.986 744.472C343.545 749.662 348.965 753.282 355.121 754.584L535.953 792.82C544.06 794.534 552.485 792.033 558.345 786.174L668.102 676.417C673.962 670.557 676.462 662.132 674.748 654.024L636.512 473.193C635.211 467.037 631.59 461.617 626.401 458.057L461.339 344.84C455.502 340.836 448.218 339.552 441.364 341.32L281.959 382.424Z" stroke="url(#paint48_linear_1_19)" stroke-opacity="0.3"/>
<path opacity="0.724638" d="M277.182 377.093C268.507 378.882 261.473 385.215 258.786 393.656L209.378 548.871C207.226 555.633 208.111 562.996 211.804 569.055L314.195 737.028C317.493 742.438 322.758 746.36 328.885 747.971L505.007 794.28C512.991 796.379 521.496 794.317 527.631 788.792L642.052 685.768C648.187 680.243 651.127 672.001 649.874 663.841L622.229 483.843C621.267 477.581 617.917 471.935 612.882 468.09L456.531 348.702C450.891 344.396 443.661 342.746 436.712 344.18L277.182 377.093Z" stroke="url(#paint49_linear_1_19)" stroke-opacity="0.3"/>
<path opacity="0.73913" d="M272.523 372.548C263.832 373.902 256.534 379.812 253.402 388.032L196.017 538.633C193.484 545.28 193.965 552.7 197.336 558.965L288.91 729.175C291.933 734.793 297.027 739.01 303.111 740.93L474.181 794.931C482.023 797.406 490.583 795.782 496.974 790.607L615.66 694.497C622.05 689.322 625.419 681.286 624.628 673.101L607.375 494.542C606.762 488.192 603.696 482.332 598.829 478.208L451.378 353.245C445.951 348.646 438.793 346.633 431.765 347.728L272.523 372.548Z" stroke="url(#paint50_linear_1_19)" stroke-opacity="0.3"/>
<path opacity="0.753623" d="M267.937 368.786C259.252 369.708 251.715 375.184 248.154 383.158L183.14 528.743C180.232 535.254 180.306 542.71 183.341 549.162L264.152 720.942C266.886 726.756 271.795 731.262 277.821 733.491L443.521 794.787C451.203 797.628 459.796 796.444 466.422 791.63L588.967 702.595C595.593 697.781 599.376 689.975 599.047 681.791L591.956 505.259C591.698 498.84 588.929 492.778 584.245 488.381L445.844 358.443C440.645 353.562 433.578 351.188 426.486 351.942L267.937 368.786Z" stroke="url(#paint51_linear_1_19)" stroke-opacity="0.3"/>
<path opacity="0.768116" d="M263.374 365.801C254.719 366.296 246.97 371.328 242.997 379.034L170.721 519.223C167.445 525.577 167.108 533.045 169.798 539.669L239.936 712.363C242.371 718.359 247.079 723.148 253.032 725.684L413.073 793.868C420.577 797.064 429.179 796.318 436.02 791.875L562.014 710.053C568.855 705.611 573.036 698.056 573.168 689.901L575.973 515.964C576.078 509.493 573.618 503.245 569.131 498.581L439.895 364.266C434.938 359.115 427.978 356.385 420.841 356.793L263.374 365.801Z" stroke="url(#paint52_linear_1_19)" stroke-opacity="0.3"/>
<path opacity="0.782609" d="M258.79 363.584C250.186 363.657 242.251 368.238 237.885 375.653L158.734 510.093C155.098 516.269 154.348 523.728 156.683 530.504L216.278 703.472C218.402 709.636 222.894 714.699 228.761 717.541L382.88 792.195C390.189 795.735 398.778 795.424 405.811 791.363L534.842 716.867C541.875 712.806 546.439 705.524 547.028 697.424L559.435 526.626C559.907 520.124 557.769 513.702 553.493 508.781L433.496 370.686C428.795 365.276 421.961 362.196 414.794 362.257L258.79 363.584Z" stroke="url(#paint53_linear_1_19)" stroke-opacity="0.3"/>
<path opacity="0.797101" d="M254.14 362.124C245.609 361.782 237.515 365.906 232.777 373.008L147.152 501.371C143.165 507.349 142.003 514.775 143.973 521.685L193.194 694.302C194.996 700.619 199.258 705.948 205.024 709.093L352.987 789.791C360.085 793.663 368.636 793.783 375.841 790.112L507.493 723.032C514.697 719.361 519.626 712.373 520.666 704.354L542.35 537.217C543.195 530.703 541.389 524.122 537.338 518.952L426.619 377.67C422.187 372.014 415.496 368.589 408.316 368.301L254.14 362.124Z" stroke="url(#paint54_linear_1_19)" stroke-opacity="0.3"/>
<path opacity="0.811594" d="M249.377 361.406C240.941 360.657 232.715 364.319 227.626 371.09L135.946 493.073C131.618 498.832 130.043 506.204 131.641 513.228L170.693 684.888C172.162 691.342 176.179 696.928 181.831 700.373L323.431 786.684C330.303 790.873 338.795 791.419 346.147 788.146L480.004 728.549C487.357 725.275 492.632 718.599 494.118 710.689L524.725 547.707C525.947 541.201 524.484 534.478 520.67 529.068L419.233 385.184C415.082 379.296 408.55 375.534 401.375 374.897L249.377 361.406Z" stroke="url(#paint55_linear_1_19)" stroke-opacity="0.3"/>
<path opacity="0.826087" d="M244.461 361.414C236.139 360.267 227.809 363.465 222.392 369.886L125.087 485.215C120.43 490.735 118.445 498.029 119.664 505.147L148.786 675.264C149.911 681.84 153.67 687.673 159.194 691.414L294.251 782.9C300.883 787.393 309.293 788.359 316.772 785.489L452.416 733.42C459.895 730.549 465.497 724.203 467.42 716.427L506.571 558.069C508.172 551.592 507.063 544.742 503.499 539.102L411.311 393.195C407.453 387.089 401.098 382.996 393.943 382.011L244.461 361.414Z" stroke="url(#paint56_linear_1_19)" stroke-opacity="0.3"/>
<path opacity="0.84058" d="M239.35 362.128C231.162 360.594 222.755 363.325 217.033 369.38L114.547 477.807C109.573 483.07 107.181 490.263 108.015 497.456L127.479 665.466C128.253 672.147 131.739 678.216 137.121 682.251L265.485 778.471C271.863 783.253 280.169 784.632 287.751 782.168L424.769 737.648C432.351 735.185 438.26 729.187 440.61 721.57L487.901 568.275C489.884 561.848 489.137 554.889 485.836 549.029L402.829 401.665C399.275 395.356 393.112 390.942 385.995 389.608L239.35 362.128Z" stroke="url(#paint57_linear_1_19)" stroke-opacity="0.3"/>
<path opacity="0.855072" d="M234.004 363.528C225.969 361.617 217.512 363.883 211.509 369.555L104.295 470.862C99.0179 475.848 96.2241 482.918 96.6672 490.164L106.777 655.529C107.191 662.298 110.392 668.593 115.618 672.915L237.165 773.429C243.278 778.483 251.459 780.266 259.12 778.214L397.101 741.242C404.762 739.189 410.956 733.554 413.722 726.121L468.728 578.299C471.093 571.944 470.718 564.892 467.692 558.823L393.765 410.557C390.525 404.06 384.571 399.334 377.507 397.655L234.004 363.528Z" stroke="url(#paint58_linear_1_19)" stroke-opacity="0.3"/>
<path opacity="0.869565" d="M228.385 365.588C220.522 363.313 212.042 365.116 205.783 370.392L94.3023 464.387C88.7372 469.079 85.5467 476.003 85.5956 483.282L86.6853 645.489C86.7312 652.329 89.6338 658.837 94.6911 663.441L209.326 767.807C215.16 773.119 223.195 775.296 230.913 773.655L369.45 744.208C377.167 742.568 383.623 737.311 386.792 730.085L449.067 588.117C451.814 581.853 451.818 574.727 449.079 568.46L384.099 419.834C381.183 413.164 375.452 408.136 368.459 406.113L228.385 365.588Z" stroke="url(#paint59_linear_1_19)" stroke-opacity="0.3"/>
<path opacity="0.884058" d="M222.458 368.284C214.783 365.658 206.307 367.001 199.819 371.87L84.5393 458.391C78.7019 462.772 75.1218 469.528 74.7738 476.818L67.2049 635.382C66.8759 642.273 69.4675 648.983 74.3429 653.864L181.996 761.642C187.541 767.194 195.411 769.754 203.162 768.526L341.852 746.56C349.603 745.332 356.297 740.466 359.855 733.472L428.934 597.703C432.062 591.554 432.454 584.371 430.011 577.919L373.814 429.455C371.23 422.629 365.738 417.31 358.832 414.948L222.458 368.284Z" stroke="url(#paint60_linear_1_19)" stroke-opacity="0.3"/>
<path opacity="0.898551" d="M216.186 371.589C208.717 368.626 200.27 369.514 193.58 373.965L74.9737 452.879C68.8811 456.932 64.9195 463.497 64.173 470.777L48.333 625.242C47.623 632.166 49.8915 639.065 54.572 644.217L155.2 754.971C160.448 760.746 168.133 763.677 175.894 762.861L314.341 748.31C322.102 747.494 329.01 743.03 332.943 736.289L408.345 607.034C411.852 601.022 412.636 593.802 410.502 587.177L362.893 439.38C360.649 432.415 355.41 426.817 348.607 424.119L216.186 371.589Z" stroke="url(#paint61_linear_1_19)" stroke-opacity="0.3"/>
<path opacity="0.913043" d="M209.539 375.471C202.291 372.186 193.899 372.626 187.035 376.65L65.5778 447.853C59.2479 451.564 54.9143 457.916 53.7688 465.164L30.069 615.105C28.9724 622.043 30.9062 629.118 35.3794 634.533L128.966 747.831C133.907 753.813 141.389 757.101 149.137 756.695L286.954 749.472C294.702 749.066 301.799 745.014 306.088 738.549L387.319 616.088C391.202 610.235 392.385 602.997 390.57 596.212L351.326 449.57C349.43 442.482 344.456 436.617 337.773 433.588L209.539 375.471Z" stroke="url(#paint62_linear_1_19)" stroke-opacity="0.3"/>
<path opacity="0.927536" d="M202.486 379.901C195.474 376.31 187.163 376.31 180.151 379.901L56.3212 443.316C49.773 446.67 45.0783 452.788 43.5344 459.982L12.4079 605.005C10.9201 611.937 12.5081 619.174 16.7615 624.846L103.315 740.264C107.942 746.434 115.204 750.065 122.916 750.065L259.722 750.065C267.434 750.065 274.696 746.434 279.323 740.264L365.876 624.846C370.129 619.174 371.717 611.937 370.23 605.005L339.103 459.982C337.559 452.788 332.864 446.67 326.316 443.316L202.486 379.901Z" stroke="url(#paint63_linear_1_19)" stroke-opacity="0.3"/>
<path opacity="0.942029" d="M195.001 384.845C188.238 380.964 180.032 380.534 172.9 383.687L47.1743 439.268C40.4275 442.251 35.3837 448.115 33.4433 455.232L-4.65738 594.977C-6.54015 601.883 -5.30884 609.267 -1.28704 615.188L78.2661 732.309C82.5723 738.649 89.5972 742.608 97.2507 743.009L232.676 750.107C240.33 750.508 247.73 747.304 252.676 741.449L344.035 633.285C348.654 627.817 350.65 620.603 349.5 613.538L326.215 470.575C325.029 463.294 320.626 456.935 314.228 453.264L195.001 384.845Z" stroke="url(#paint64_linear_1_19)" stroke-opacity="0.3"/>
<path opacity="0.956522" d="M187.055 390.27C180.554 386.116 172.477 385.267 165.254 387.978L38.107 435.706C31.1823 438.306 25.8026 443.894 23.4687 450.913L-21.1361 585.054C-23.4169 591.913 -22.5524 599.43 -18.7739 605.592L53.8355 724.008C57.8158 730.499 64.5879 734.771 72.1607 735.567L205.847 749.618C213.419 750.414 220.932 747.644 226.175 742.122L321.817 641.389C326.795 636.147 329.203 628.975 328.398 621.792L312.657 481.308C311.834 473.957 307.734 467.372 301.501 463.39L187.055 390.27Z" stroke="url(#paint65_linear_1_19)" stroke-opacity="0.3"/>
<path opacity="0.971014" d="M178.629 396.139C172.401 391.731 164.475 390.476 157.19 392.744L29.0929 432.628C22.0119 434.833 16.3107 440.126 13.5876 447.025L-37.0366 575.27C-39.7175 582.061 -39.2296 589.694 -35.7059 596.089L30.0392 715.404C33.6894 722.028 40.1944 726.595 47.6646 727.778L179.262 748.621C186.733 749.804 194.331 747.471 199.849 742.299L299.247 649.141C304.574 644.148 307.397 637.039 306.946 629.751L298.429 492.139C297.971 484.737 294.185 477.941 288.132 473.656L178.629 396.139Z" stroke="url(#paint66_linear_1_19)" stroke-opacity="0.3"/>
<path opacity="0.985507" d="M169.701 402.418C163.757 397.773 156.004 396.125 148.684 397.951L20.1035 430.028C12.8885 431.828 6.88139 436.807 3.77454 443.563L-52.3713 565.656C-55.4535 572.358 -55.3515 580.093 -52.0935 586.712L6.88845 706.538C10.2053 713.277 16.4296 718.122 23.776 719.683L152.95 747.14C160.296 748.701 167.953 746.807 173.724 742L276.345 656.523C282.013 651.802 285.252 644.777 285.163 637.401L283.53 503.027C283.44 495.592 279.978 488.599 274.118 484.021L169.701 402.418Z" stroke="url(#paint67_linear_1_19)" stroke-opacity="0.3"/>
<path d="M160.251 409.068C154.6 404.205 147.042 402.18 139.716 403.566L11.1101 427.899C3.78412 429.285 -2.51198 433.932 -5.99593 440.524L-67.1554 556.243C-70.6394 562.835 -70.932 570.655 -67.9504 577.489L-15.6096 697.455C-12.628 704.289 -6.6968 709.393 0.505109 711.323L126.933 745.199C134.134 747.129 141.823 745.674 147.822 741.247L253.134 663.523C259.133 659.096 262.789 652.177 263.068 644.727L267.962 513.931C268.241 506.48 265.112 499.308 259.46 494.444L160.251 409.068Z" stroke="url(#paint68_linear_1_19)" stroke-opacity="0.3"/>
<defs>
<linearGradient id="paint0_linear_1_19" x1="1345.88" y1="995.16" x2="1200.9" y2="79.7769" gradientUnits="userSpaceOnUse">
<stop stop-color="#EBDF16"/>
<stop offset="0.489583" stop-color="#535353"/>
</linearGradient>
<linearGradient id="paint1_linear_1_19" x1="1305.07" y1="994.576" x2="1209.05" y2="80.9945" gradientUnits="userSpaceOnUse">
<stop stop-color="#EBDF16"/>
<stop offset="0.489583" stop-color="#535353"/>
</linearGradient>
<linearGradient id="paint2_linear_1_19" x1="1264.54" y1="992.742" x2="1216.89" y2="83.5557" gradientUnits="userSpaceOnUse">
<stop stop-color="#EBDF16"/>
<stop offset="0.489583" stop-color="#535353"/>
</linearGradient>
<linearGradient id="paint3_linear_1_19" x1="1224.36" y1="989.685" x2="1224.36" y2="87.4314" gradientUnits="userSpaceOnUse">
<stop stop-color="#EBDF16"/>
<stop offset="0.489583" stop-color="#535353"/>
</linearGradient>
<linearGradient id="paint4_linear_1_19" x1="1184.59" y1="985.436" x2="1231.38" y2="92.588" gradientUnits="userSpaceOnUse">
<stop stop-color="#EBDF16"/>
<stop offset="0.489583" stop-color="#535353"/>
</linearGradient>
<linearGradient id="paint5_linear_1_19" x1="1145.29" y1="980.03" x2="1237.9" y2="98.9894" gradientUnits="userSpaceOnUse">
<stop stop-color="#EBDF16"/>
<stop offset="0.489583" stop-color="#535353"/>
</linearGradient>
<linearGradient id="paint6_linear_1_19" x1="1106.53" y1="973.503" x2="1243.84" y2="106.595" gradientUnits="userSpaceOnUse">
<stop stop-color="#EBDF16"/>
<stop offset="0.489583" stop-color="#535353"/>
</linearGradient>
<linearGradient id="paint7_linear_1_19" x1="1068.36" y1="965.895" x2="1249.15" y2="115.363" gradientUnits="userSpaceOnUse">
<stop stop-color="#EBDF16"/>
<stop offset="0.489583" stop-color="#535353"/>
</linearGradient>
<linearGradient id="paint8_linear_1_19" x1="1030.83" y1="957.25" x2="1253.77" y2="125.246" gradientUnits="userSpaceOnUse">
<stop stop-color="#EBDF16"/>
<stop offset="0.489583" stop-color="#535353"/>
</linearGradient>
<linearGradient id="paint9_linear_1_19" x1="993.994" y1="947.613" x2="1257.64" y2="136.196" gradientUnits="userSpaceOnUse">
<stop stop-color="#EBDF16"/>
<stop offset="0.489583" stop-color="#535353"/>
</linearGradient>
<linearGradient id="paint10_linear_1_19" x1="957.898" y1="937.031" x2="1260.72" y2="148.161" gradientUnits="userSpaceOnUse">
<stop stop-color="#EBDF16"/>
<stop offset="0.489583" stop-color="#535353"/>
</linearGradient>
<linearGradient id="paint11_linear_1_19" x1="922.588" y1="925.555" x2="1262.95" y2="161.087" gradientUnits="userSpaceOnUse">
<stop stop-color="#EBDF16"/>
<stop offset="0.489583" stop-color="#535353"/>
</linearGradient>
<linearGradient id="paint12_linear_1_19" x1="888.104" y1="913.237" x2="1264.3" y2="174.919" gradientUnits="userSpaceOnUse">
<stop stop-color="#EBDF16"/>
<stop offset="0.489583" stop-color="#535353"/>
</linearGradient>
<linearGradient id="paint13_linear_1_19" x1="854.484" y1="900.131" x2="1264.71" y2="189.597" gradientUnits="userSpaceOnUse">
<stop stop-color="#EBDF16"/>
<stop offset="0.489583" stop-color="#535353"/>
</linearGradient>
<linearGradient id="paint14_linear_1_19" x1="821.763" y1="886.293" x2="1264.16" y2="205.063" gradientUnits="userSpaceOnUse">
<stop stop-color="#EBDF16"/>
<stop offset="0.489583" stop-color="#535353"/>
</linearGradient>
<linearGradient id="paint15_linear_1_19" x1="789.974" y1="871.779" x2="1262.61" y2="221.254" gradientUnits="userSpaceOnUse">
<stop stop-color="#EBDF16"/>
<stop offset="0.489583" stop-color="#535353"/>
</linearGradient>
<linearGradient id="paint16_linear_1_19" x1="759.141" y1="856.649" x2="1260.03" y2="238.108" gradientUnits="userSpaceOnUse">
<stop stop-color="#EBDF16"/>
<stop offset="0.489583" stop-color="#535353"/>
</linearGradient>
<linearGradient id="paint17_linear_1_19" x1="729.292" y1="840.962" x2="1256.39" y2="255.562" gradientUnits="userSpaceOnUse">
<stop stop-color="#EBDF16"/>
<stop offset="0.489583" stop-color="#535353"/>
</linearGradient>
<linearGradient id="paint18_linear_1_19" x1="700.445" y1="824.777" x2="1251.67" y2="273.55" gradientUnits="userSpaceOnUse">
<stop stop-color="#EBDF16"/>
<stop offset="0.489583" stop-color="#535353"/>
</linearGradient>
<linearGradient id="paint19_linear_1_19" x1="672.619" y1="808.156" x2="1245.86" y2="292.007" gradientUnits="userSpaceOnUse">
<stop stop-color="#EBDF16"/>
<stop offset="0.489583" stop-color="#535353"/>
</linearGradient>
<linearGradient id="paint20_linear_1_19" x1="645.825" y1="791.16" x2="1238.94" y2="310.867" gradientUnits="userSpaceOnUse">
<stop stop-color="#EBDF16"/>
<stop offset="0.489583" stop-color="#535353"/>
</linearGradient>
<linearGradient id="paint21_linear_1_19" x1="620.075" y1="773.851" x2="1230.89" y2="330.065" gradientUnits="userSpaceOnUse">
<stop stop-color="#EBDF16"/>
<stop offset="0.489583" stop-color="#535353"/>
</linearGradient>
<linearGradient id="paint22_linear_1_19" x1="595.373" y1="756.288" x2="1221.72" y2="349.534" gradientUnits="userSpaceOnUse">
<stop stop-color="#EBDF16"/>
<stop offset="0.489583" stop-color="#535353"/>
</linearGradient>
<linearGradient id="paint23_linear_1_19" x1="571.726" y1="738.535" x2="1211.42" y2="369.208" gradientUnits="userSpaceOnUse">
<stop stop-color="#EBDF16"/>
<stop offset="0.489583" stop-color="#535353"/>
</linearGradient>
<linearGradient id="paint24_linear_1_19" x1="549.127" y1="720.651" x2="1199.98" y2="389.023" gradientUnits="userSpaceOnUse">
<stop stop-color="#EBDF16"/>
<stop offset="0.489583" stop-color="#535353"/>
</linearGradient>
<linearGradient id="paint25_linear_1_19" x1="527.576" y1="702.697" x2="1187.42" y2="408.913" gradientUnits="userSpaceOnUse">
<stop stop-color="#EBDF16"/>
<stop offset="0.489583" stop-color="#535353"/>
</linearGradient>
<linearGradient id="paint26_linear_1_19" x1="507.066" y1="684.731" x2="1173.75" y2="428.816" gradientUnits="userSpaceOnUse">
<stop stop-color="#EBDF16"/>
<stop offset="0.489583" stop-color="#535353"/>
</linearGradient>
<linearGradient id="paint27_linear_1_19" x1="487.584" y1="666.813" x2="1158.97" y2="448.667" gradientUnits="userSpaceOnUse">
<stop stop-color="#EBDF16"/>
<stop offset="0.489583" stop-color="#535353"/>
</linearGradient>
<linearGradient id="paint28_linear_1_19" x1="469.115" y1="648.999" x2="1143.09" y2="468.407" gradientUnits="userSpaceOnUse">
<stop stop-color="#EBDF16"/>
<stop offset="0.489583" stop-color="#535353"/>
</linearGradient>
<linearGradient id="paint29_linear_1_19" x1="451.645" y1="631.345" x2="1126.15" y2="487.974" gradientUnits="userSpaceOnUse">
<stop stop-color="#EBDF16"/>
<stop offset="0.489583" stop-color="#535353"/>
</linearGradient>
<linearGradient id="paint30_linear_1_19" x1="435.15" y1="613.905" x2="1108.15" y2="507.312" gradientUnits="userSpaceOnUse">
<stop stop-color="#EBDF16"/>
<stop offset="0.489583" stop-color="#535353"/>
</linearGradient>
<linearGradient id="paint31_linear_1_19" x1="419.609" y1="596.732" x2="1089.13" y2="526.362" gradientUnits="userSpaceOnUse">
<stop stop-color="#EBDF16"/>
<stop offset="0.489583" stop-color="#535353"/>
</linearGradient>
<linearGradient id="paint32_linear_1_19" x1="404.996" y1="579.877" x2="1069.12" y2="545.071" gradientUnits="userSpaceOnUse">
<stop stop-color="#EBDF16"/>
<stop offset="0.489583" stop-color="#535353"/>
</linearGradient>
<linearGradient id="paint33_linear_1_19" x1="391.281" y1="563.387" x2="1048.13" y2="563.387" gradientUnits="userSpaceOnUse">
<stop stop-color="#EBDF16"/>
<stop offset="0.489583" stop-color="#535353"/>
</linearGradient>
<linearGradient id="paint34_linear_1_19" x1="378.435" y1="547.31" x2="1026.22" y2="581.259" gradientUnits="userSpaceOnUse">
<stop stop-color="#EBDF16"/>
<stop offset="0.489583" stop-color="#535353"/>
</linearGradient>
<linearGradient id="paint35_linear_1_19" x1="366.422" y1="531.691" x2="1003.41" y2="598.64" gradientUnits="userSpaceOnUse">
<stop stop-color="#EBDF16"/>
<stop offset="0.489583" stop-color="#535353"/>
</linearGradient>
<linearGradient id="paint36_linear_1_19" x1="355.208" y1="516.569" x2="979.737" y2="615.485" gradientUnits="userSpaceOnUse">
<stop stop-color="#EBDF16"/>
<stop offset="0.489583" stop-color="#535353"/>
</linearGradient>
<linearGradient id="paint37_linear_1_19" x1="344.754" y1="501.987" x2="955.249" y2="631.751" gradientUnits="userSpaceOnUse">
<stop stop-color="#EBDF16"/>
<stop offset="0.489583" stop-color="#535353"/>
</linearGradient>
<linearGradient id="paint38_linear_1_19" x1="335.02" y1="487.979" x2="929.985" y2="647.399" gradientUnits="userSpaceOnUse">
<stop stop-color="#EBDF16"/>
<stop offset="0.489583" stop-color="#535353"/>
</linearGradient>
<linearGradient id="paint39_linear_1_19" x1="325.966" y1="474.58" x2="903.993" y2="662.392" gradientUnits="userSpaceOnUse">
<stop stop-color="#EBDF16"/>
<stop offset="0.489583" stop-color="#535353"/>
</linearGradient>
<linearGradient id="paint40_linear_1_19" x1="317.548" y1="461.822" x2="877.317" y2="676.697" gradientUnits="userSpaceOnUse">
<stop stop-color="#EBDF16"/>
<stop offset="0.489583" stop-color="#535353"/>
</linearGradient>
<linearGradient id="paint41_linear_1_19" x1="309.722" y1="449.733" x2="850.005" y2="690.282" gradientUnits="userSpaceOnUse">
<stop stop-color="#EBDF16"/>
<stop offset="0.489583" stop-color="#535353"/>
</linearGradient>
<linearGradient id="paint42_linear_1_19" x1="302.44" y1="438.338" x2="822.105" y2="703.121" gradientUnits="userSpaceOnUse">
<stop stop-color="#EBDF16"/>
<stop offset="0.489583" stop-color="#535353"/>
</linearGradient>
<linearGradient id="paint43_linear_1_19" x1="295.659" y1="427.661" x2="793.67" y2="715.188" gradientUnits="userSpaceOnUse">
<stop stop-color="#EBDF16"/>
<stop offset="0.489583" stop-color="#535353"/>
</linearGradient>
<linearGradient id="paint44_linear_1_19" x1="289.329" y1="417.721" x2="764.749" y2="726.463" gradientUnits="userSpaceOnUse">
<stop stop-color="#EBDF16"/>
<stop offset="0.489583" stop-color="#535353"/>
</linearGradient>
<linearGradient id="paint45_linear_1_19" x1="283.402" y1="408.536" x2="735.395" y2="736.928" gradientUnits="userSpaceOnUse">
<stop stop-color="#EBDF16"/>
<stop offset="0.489583" stop-color="#535353"/>
</linearGradient>
<linearGradient id="paint46_linear_1_19" x1="277.83" y1="400.117" x2="705.659" y2="746.567" gradientUnits="userSpaceOnUse">
<stop stop-color="#EBDF16"/>
<stop offset="0.489583" stop-color="#535353"/>
</linearGradient>
<linearGradient id="paint47_linear_1_19" x1="272.563" y1="392.477" x2="675.595" y2="755.369" gradientUnits="userSpaceOnUse">
<stop stop-color="#EBDF16"/>
<stop offset="0.489583" stop-color="#535353"/>
</linearGradient>
<linearGradient id="paint48_linear_1_19" x1="267.551" y1="385.623" x2="645.255" y2="763.327" gradientUnits="userSpaceOnUse">
<stop stop-color="#EBDF16"/>
<stop offset="0.489583" stop-color="#535353"/>
</linearGradient>
<linearGradient id="paint49_linear_1_19" x1="262.749" y1="379.56" x2="614.694" y2="770.434" gradientUnits="userSpaceOnUse">
<stop stop-color="#EBDF16"/>
<stop offset="0.489583" stop-color="#535353"/>
</linearGradient>
<linearGradient id="paint50_linear_1_19" x1="258.103" y1="374.289" x2="583.961" y2="776.69" gradientUnits="userSpaceOnUse">
<stop stop-color="#EBDF16"/>
<stop offset="0.489583" stop-color="#535353"/>
</linearGradient>
<linearGradient id="paint51_linear_1_19" x1="253.568" y1="369.809" x2="553.111" y2="782.096" gradientUnits="userSpaceOnUse">
<stop stop-color="#EBDF16"/>
<stop offset="0.489583" stop-color="#535353"/>
</linearGradient>
<linearGradient id="paint52_linear_1_19" x1="249.094" y1="366.117" x2="522.194" y2="786.654" gradientUnits="userSpaceOnUse">
<stop stop-color="#EBDF16"/>
<stop offset="0.489583" stop-color="#535353"/>
</linearGradient>
<linearGradient id="paint53_linear_1_19" x1="244.634" y1="363.204" x2="491.261" y2="790.375" gradientUnits="userSpaceOnUse">
<stop stop-color="#EBDF16"/>
<stop offset="0.489583" stop-color="#535353"/>
</linearGradient>
<linearGradient id="paint54_linear_1_19" x1="240.145" y1="361.063" x2="460.363" y2="793.267" gradientUnits="userSpaceOnUse">
<stop stop-color="#EBDF16"/>
<stop offset="0.489583" stop-color="#535353"/>
</linearGradient>
<linearGradient id="paint55_linear_1_19" x1="235.577" y1="359.679" x2="429.547" y2="795.343" gradientUnits="userSpaceOnUse">
<stop stop-color="#EBDF16"/>
<stop offset="0.489583" stop-color="#535353"/>
</linearGradient>
<linearGradient id="paint56_linear_1_19" x1="230.889" y1="359.039" x2="398.861" y2="796.621" gradientUnits="userSpaceOnUse">
<stop stop-color="#EBDF16"/>
<stop offset="0.489583" stop-color="#535353"/>
</linearGradient>
<linearGradient id="paint57_linear_1_19" x1="226.038" y1="359.125" x2="368.35" y2="797.119" gradientUnits="userSpaceOnUse">
<stop stop-color="#EBDF16"/>
<stop offset="0.489583" stop-color="#535353"/>
</linearGradient>
<linearGradient id="paint58_linear_1_19" x1="220.981" y1="359.917" x2="338.059" y2="796.857" gradientUnits="userSpaceOnUse">
<stop stop-color="#EBDF16"/>
<stop offset="0.489583" stop-color="#535353"/>
</linearGradient>
<linearGradient id="paint59_linear_1_19" x1="215.682" y1="361.392" x2="308.031" y2="795.86" gradientUnits="userSpaceOnUse">
<stop stop-color="#EBDF16"/>
<stop offset="0.489583" stop-color="#535353"/>
</linearGradient>
<linearGradient id="paint60_linear_1_19" x1="210.101" y1="363.528" x2="278.306" y2="794.154" gradientUnits="userSpaceOnUse">
<stop stop-color="#EBDF16"/>
<stop offset="0.489583" stop-color="#535353"/>
</linearGradient>
<linearGradient id="paint61_linear_1_19" x1="204.202" y1="366.297" x2="248.92" y2="791.767" gradientUnits="userSpaceOnUse">
<stop stop-color="#EBDF16"/>
<stop offset="0.489583" stop-color="#535353"/>
</linearGradient>
<linearGradient id="paint62_linear_1_19" x1="197.952" y1="369.671" x2="219.914" y2="788.729" gradientUnits="userSpaceOnUse">
<stop stop-color="#EBDF16"/>
<stop offset="0.489583" stop-color="#535353"/>
</linearGradient>
<linearGradient id="paint63_linear_1_19" x1="191.319" y1="373.62" x2="191.319" y2="785.074" gradientUnits="userSpaceOnUse">
<stop stop-color="#EBDF16"/>
<stop offset="0.489583" stop-color="#535353"/>
</linearGradient>
<linearGradient id="paint64_linear_1_19" x1="184.273" y1="378.113" x2="163.167" y2="780.834" gradientUnits="userSpaceOnUse">
<stop stop-color="#EBDF16"/>
<stop offset="0.489583" stop-color="#535353"/>
</linearGradient>
<linearGradient id="paint65_linear_1_19" x1="176.786" y1="383.115" x2="135.488" y2="776.045" gradientUnits="userSpaceOnUse">
<stop stop-color="#EBDF16"/>
<stop offset="0.489583" stop-color="#535353"/>
</linearGradient>
<linearGradient id="paint66_linear_1_19" x1="168.836" y1="388.594" x2="108.309" y2="770.745" gradientUnits="userSpaceOnUse">
<stop stop-color="#EBDF16"/>
<stop offset="0.489583" stop-color="#535353"/>
</linearGradient>
<linearGradient id="paint67_linear_1_19" x1="160.398" y1="394.513" x2="81.6548" y2="764.971" gradientUnits="userSpaceOnUse">
<stop stop-color="#EBDF16"/>
<stop offset="0.489583" stop-color="#535353"/>
</linearGradient>
<linearGradient id="paint68_linear_1_19" x1="151.452" y1="400.836" x2="55.5457" y2="758.764" gradientUnits="userSpaceOnUse">
<stop stop-color="#EBDF16"/>
<stop offset="0.489583" stop-color="#535353"/>
</linearGradient>
</defs>
</svg>
