<svg width="298" height="36" viewBox="0 0 298 36" fill="none" xmlns="http://www.w3.org/2000/svg">
<path d="M95.9606 0H91.7438C91.5074 0 91.3103 0.0394089 91.1724 0.0985222C91.0345 0.157635 90.9163 0.256158 90.7783 0.394089L75.0739 15.2118L65.931 6.64039C65.7931 6.50246 65.6749 6.40394 65.5369 6.34483C65.399 6.28571 65.2217 6.24631 64.9655 6.24631H60.7488C60.4335 6.24631 60.2562 6.34483 60.2167 6.56158C60.1773 6.77833 60.2365 6.95566 60.4138 7.133L75.0542 20.7488L96.2956 0.886699C96.4729 0.70936 96.532 0.512315 96.4926 0.315271C96.4532 0.0985222 96.2759 0 95.9606 0Z" fill="#EDE110"/>
<path d="M24.8276 10.4827C26.3054 10.4827 27.5468 10.6009 28.5517 10.8571C29.5566 11.1132 30.3645 11.5073 30.9951 12.059C31.6059 12.591 32.0591 13.3004 32.2956 14.1477C32.5517 14.995 32.6699 16.0196 32.6699 17.2216V27.9605C32.6699 28.4531 32.4335 28.6896 31.9409 28.6896H28.6897C28.197 28.6896 27.9606 28.4531 27.9606 27.9605V18.3447C27.9606 17.6551 27.9212 17.0837 27.8227 16.6107C27.7241 16.1378 27.5665 15.7635 27.33 15.4876C27.0936 15.2117 26.7389 15.0147 26.3054 14.8965C25.8719 14.7782 25.2808 14.7191 24.5517 14.7191H18.7192V27.9802C18.7192 28.4728 18.4631 28.7093 17.9507 28.7093H14.6995C14.2069 28.7093 13.9704 28.4728 13.9704 27.9802V14.7191H8.33498C7.62562 14.7191 7.03448 14.7782 6.58128 14.8965C6.10837 15.0147 5.75369 15.2117 5.47783 15.4876C5.20197 15.7635 5.00493 16.1378 4.9064 16.6107C4.78818 17.0837 4.74877 17.6748 4.74877 18.3447V27.9605C4.74877 28.4531 4.51231 28.6896 4.0197 28.6896H0.768473C0.256158 28.6896 0 28.4531 0 27.9605V17.2216C0 16.0196 0.137931 15.0147 0.394089 14.1477C0.650246 13.3004 1.10345 12.591 1.69458 12.059C2.30542 11.5073 3.1133 11.1132 4.11823 10.8571C5.12315 10.6009 6.38424 10.4827 7.88177 10.4827H24.8276Z" fill="white"/>
<path d="M51.5072 10.4827C52.985 10.4827 54.2264 10.6009 55.2511 10.8571C56.2757 11.1132 57.0836 11.5073 57.6944 12.059C58.3052 12.591 58.7387 13.3004 58.9949 14.1477C59.2511 14.995 59.389 16.0196 59.389 17.2216V26.0295C59.389 26.5615 59.3496 26.995 59.2708 27.33C59.1919 27.6649 59.054 27.9408 58.8767 28.1378C58.6796 28.3349 58.4432 28.4728 58.1279 28.5516C57.8126 28.6304 57.4185 28.6699 56.9259 28.6699H41.1427C40.1772 28.6699 39.3496 28.5713 38.6993 28.394C38.0491 28.197 37.5171 27.9211 37.123 27.5467C36.7289 27.1723 36.453 26.6797 36.2757 26.0886C36.1181 25.4974 36.0195 24.7881 36.0195 23.9605V22.3644C36.0195 21.6748 36.0983 21.0639 36.2757 20.5319C36.4333 19.9999 36.7289 19.527 37.123 19.1526C37.5171 18.7782 38.0491 18.5024 38.6993 18.3053C39.3496 18.1083 40.1575 18.0295 41.1427 18.0295H54.6402V17.3989C54.6402 16.8669 54.5811 16.4137 54.4826 16.0393C54.3644 15.6649 54.187 15.3694 53.9112 15.1329C53.655 14.8965 53.2806 14.7388 52.8274 14.6206C52.3545 14.5024 51.7634 14.463 51.0343 14.463H37.1821C36.788 14.463 36.591 14.2659 36.591 13.8718V11.0935C36.591 10.6994 36.788 10.5024 37.1821 10.5024H51.5072V10.4827ZM53.6944 25.0245C54.0491 25.0245 54.3052 24.9457 54.4432 24.7684C54.5811 24.6107 54.6599 24.3152 54.6599 23.8817V20.9654H42.522C41.8323 20.9654 41.3594 21.1034 41.0836 21.3792C40.8077 21.6551 40.6698 22.0689 40.6698 22.5812V23.2708C40.6698 23.862 40.8077 24.2955 41.0836 24.5713C41.3594 24.8472 41.8323 24.9851 42.522 24.9851H53.6944V25.0245Z" fill="white"/>
<path d="M98.1281 3.7439C98.6207 3.7439 98.8572 3.98035 98.8572 4.47296V7.62567C98.8572 8.13799 98.6207 8.39414 98.1281 8.39414H94.8769C94.3646 8.39414 94.1084 8.13799 94.1084 7.62567V4.47296C94.1084 3.98035 94.3646 3.7439 94.8769 3.7439H98.1281ZM98.1281 10.4631C98.6207 10.4631 98.8572 10.7193 98.8572 11.2316V27.9409C98.8572 28.4336 98.6207 28.67 98.1281 28.67H94.8769C94.3843 28.67 94.1478 28.4336 94.1478 27.9409V11.2316C94.1478 10.7193 94.3843 10.4631 94.8769 10.4631H98.1281Z" fill="white"/>
<path d="M120.138 10.4828C120.532 10.4828 120.729 10.6798 120.729 11.0739V13.8522C120.729 14.2463 120.532 14.4434 120.138 14.4434H111.33C110.621 14.4434 110.03 14.5025 109.576 14.6207C109.103 14.7389 108.749 14.936 108.473 15.2118C108.197 15.4877 108 15.8621 107.902 16.335C107.783 16.8079 107.744 17.399 107.744 18.069V27.9212C107.744 28.4138 107.507 28.6503 107.015 28.6503H103.764C103.251 28.6503 102.995 28.4138 102.995 27.9212V17.1823C102.995 15.9803 103.133 14.9754 103.389 14.1084C103.645 13.2611 104.099 12.5517 104.69 12.0197C105.301 11.468 106.108 11.0739 107.113 10.8177C108.118 10.5616 109.379 10.4434 110.877 10.4434H120.158L120.138 10.4828Z" fill="white"/>
<path d="M127.29 10.4827C127.783 10.4827 128.019 10.7388 128.019 11.2511V20.8275C128.019 21.5369 128.059 22.128 128.157 22.5812C128.236 23.0541 128.413 23.4088 128.65 23.6846C128.886 23.9605 129.241 24.1575 129.674 24.2758C130.108 24.394 130.699 24.4531 131.428 24.4531H139.94C140.67 24.4531 141.261 24.394 141.734 24.2758C142.206 24.1575 142.561 23.9605 142.837 23.6846C143.113 23.4088 143.31 23.0344 143.408 22.5812C143.527 22.1083 143.566 21.5369 143.566 20.8275V11.2511C143.566 10.7388 143.803 10.4827 144.295 10.4827H147.546C148.039 10.4827 148.275 10.7388 148.275 11.2511V21.9901C148.275 23.192 148.138 24.197 147.881 25.0639C147.625 25.9112 147.172 26.6206 146.581 27.1526C145.97 27.6846 145.162 28.0787 144.138 28.3349C143.113 28.5713 141.871 28.7093 140.394 28.7093H131.152C129.655 28.7093 128.394 28.591 127.389 28.3349C126.384 28.0984 125.576 27.7043 124.965 27.1526C124.354 26.6009 123.921 25.9112 123.665 25.0639C123.408 24.2167 123.271 23.192 123.271 21.9901V11.2511C123.271 10.7388 123.527 10.4827 124.039 10.4827H127.29Z" fill="white"/>
<path d="M156.315 3.82275C156.808 3.82275 157.044 4.05921 157.044 4.55182V10.4829H169.478C170.956 10.4829 172.197 10.6011 173.222 10.8572C174.246 11.1134 175.054 11.5075 175.665 12.0592C176.276 12.5912 176.71 13.3006 176.966 14.1479C177.222 14.9952 177.36 16.0198 177.36 17.2218V21.9902C177.36 23.1922 177.222 24.1971 176.966 25.0641C176.71 25.9114 176.256 26.6208 175.665 27.1528C175.054 27.6848 174.246 28.0789 173.222 28.3351C172.197 28.5715 170.956 28.7095 169.478 28.7095H160.197C158.7 28.7095 157.439 28.5912 156.434 28.3351C155.429 28.0986 154.621 27.7045 154.01 27.1528C153.399 26.6011 152.966 25.9114 152.71 25.0641C152.453 24.2168 152.315 23.1922 152.315 21.9902V4.55182C152.315 4.05921 152.572 3.82275 153.084 3.82275H156.335H156.315ZM157.044 14.4631V21.0641C157.044 21.7735 157.104 22.3646 157.202 22.8178C157.32 23.2907 157.498 23.6454 157.774 23.9213C158.049 24.1971 158.424 24.3942 158.877 24.5124C159.35 24.6306 159.921 24.6897 160.631 24.6897H168.985C169.714 24.6897 170.306 24.6306 170.778 24.5124C171.251 24.3942 171.606 24.1971 171.882 23.9213C172.158 23.6454 172.355 23.271 172.453 22.8178C172.572 22.3449 172.611 21.7735 172.611 21.0641V18.1085C172.611 17.4188 172.552 16.8474 172.453 16.3745C172.335 15.9016 172.158 15.5272 171.882 15.2513C171.606 14.9755 171.232 14.7784 170.778 14.6602C170.306 14.542 169.714 14.4829 168.985 14.4829H157.025L157.044 14.4631Z" fill="white"/>
<path d="M204.315 10.4827C204.552 10.4827 204.709 10.5615 204.788 10.7388C204.867 10.8965 204.847 11.0935 204.729 11.3103L192 33.7536C191.567 34.5221 190.936 35.0935 190.128 35.4679C189.32 35.8226 188.197 36.0196 186.759 36.0196H184.434C184.04 36.0196 183.842 35.8226 183.842 35.4285V32.7093C183.842 32.3152 184.04 32.1181 184.434 32.1181H186.384C187.232 32.1181 187.783 31.862 188.079 31.3497L189.872 28.197C189.32 28.1575 188.887 28.0196 188.591 27.8029C188.296 27.5861 188.02 27.2314 187.744 26.7782L178.798 11.33C178.68 11.1132 178.68 10.9162 178.739 10.7585C178.818 10.6009 178.975 10.5024 179.212 10.5024H183.015C183.389 10.5024 183.645 10.66 183.803 10.9753L191.153 23.7437C191.33 24.059 191.468 24.2561 191.567 24.3546C191.665 24.4531 191.783 24.5122 191.941 24.5122L199.724 10.995C199.882 10.6797 200.138 10.5221 200.512 10.5221H204.217L204.315 10.4827Z" fill="white"/>
<path d="M207.133 24.0393C207.626 24.0393 207.862 24.2758 207.862 24.7684V27.9408C207.862 28.4334 207.626 28.6698 207.133 28.6698H203.882C203.369 28.6698 203.113 28.4334 203.113 27.9408V24.7684C203.113 24.2758 203.369 24.0393 203.882 24.0393H207.133Z" fill="white"/>
<path d="M232.414 10.4828C232.808 10.4828 233.005 10.6798 233.005 11.0739V13.8523C233.005 14.2463 232.808 14.4434 232.414 14.4434H219.547C218.818 14.4434 218.227 14.5025 217.754 14.6207C217.281 14.739 216.926 14.936 216.67 15.2119C216.414 15.4877 216.217 15.8621 216.099 16.335C215.98 16.8079 215.941 17.3991 215.941 18.069V21.0247C215.941 21.734 216 22.3252 216.099 22.7784C216.217 23.2513 216.394 23.606 216.67 23.8818C216.926 24.1577 217.301 24.3547 217.754 24.4729C218.227 24.5912 218.818 24.6503 219.547 24.6503H232.414C232.808 24.6503 233.005 24.8473 233.005 25.2414V28.0197C233.005 28.4138 232.808 28.6109 232.414 28.6109H219.094C217.596 28.6109 216.335 28.4927 215.33 28.2365C214.325 28 213.517 27.606 212.906 27.0542C212.296 26.5025 211.862 25.8128 211.606 24.9656C211.35 24.1183 211.212 23.0936 211.212 21.8917V17.1232C211.212 15.9212 211.35 14.9163 211.606 14.0493C211.862 13.202 212.315 12.4927 212.906 11.9606C213.517 11.4089 214.325 11.0148 215.33 10.7587C216.335 10.5025 217.596 10.3843 219.094 10.3843H232.414V10.4828Z" fill="white"/>
<path d="M253.143 10.4827C254.621 10.4827 255.862 10.6009 256.887 10.8571C257.911 11.1132 258.719 11.5073 259.33 12.059C259.941 12.591 260.374 13.3004 260.631 14.1477C260.887 14.995 261.025 16.0196 261.025 17.2216V21.9901C261.025 23.192 260.887 24.197 260.631 25.0639C260.374 25.9112 259.921 26.6206 259.33 27.1526C258.719 27.6846 257.911 28.0787 256.887 28.3349C255.862 28.5713 254.621 28.7093 253.143 28.7093H243.764C242.266 28.7093 241.005 28.591 240 28.3349C238.995 28.0984 238.187 27.7043 237.576 27.1526C236.966 26.6009 236.532 25.9112 236.276 25.0639C236.02 24.2167 235.882 23.192 235.882 21.9901V17.2216C235.882 16.0196 236.02 15.0147 236.276 14.1477C236.532 13.3004 236.985 12.591 237.576 12.059C238.187 11.5073 238.995 11.1132 240 10.8571C241.005 10.6009 242.266 10.4827 243.764 10.4827H253.143ZM240.611 21.1625C240.611 21.8718 240.67 22.463 240.769 22.9162C240.887 23.3891 241.064 23.7437 241.34 24.0196C241.616 24.2955 241.99 24.4925 242.443 24.6107C242.916 24.729 243.488 24.7881 244.197 24.7881H252.65C253.379 24.7881 253.971 24.729 254.443 24.6107C254.916 24.4925 255.271 24.2955 255.547 24.0196C255.823 23.7437 256.02 23.3694 256.118 22.9162C256.217 22.463 256.276 21.8718 256.276 21.1625V18.0098C256.276 17.3201 256.217 16.7487 256.118 16.2955C256 15.8226 255.823 15.4482 255.547 15.1723C255.271 14.8768 254.897 14.6797 254.443 14.5812C253.971 14.463 253.379 14.4236 252.65 14.4236H244.197C243.488 14.4236 242.897 14.4827 242.443 14.5812C241.971 14.6994 241.616 14.8965 241.34 15.1723C241.064 15.4679 240.867 15.8423 240.769 16.2955C240.65 16.7684 240.611 17.3398 240.611 18.0098V21.1625Z" fill="white"/>
<path d="M289.655 10.4827C291.133 10.4827 292.374 10.6009 293.379 10.8571C294.384 11.1132 295.192 11.5073 295.822 12.059C296.433 12.591 296.886 13.3004 297.123 14.1477C297.379 14.995 297.497 16.0196 297.497 17.2216V27.9605C297.497 28.4531 297.261 28.6896 296.768 28.6896H293.517C293.024 28.6896 292.788 28.4531 292.788 27.9605V18.3447C292.788 17.6551 292.748 17.0837 292.65 16.6107C292.571 16.1378 292.394 15.7635 292.157 15.4876C291.921 15.2117 291.566 15.0147 291.133 14.8965C290.699 14.7782 290.108 14.7191 289.379 14.7191H283.546V27.9802C283.546 28.4728 283.29 28.7093 282.778 28.7093H279.527C279.034 28.7093 278.798 28.4728 278.798 27.9802V14.7191H273.162C272.453 14.7191 271.862 14.7782 271.408 14.8965C270.936 15.0147 270.581 15.2117 270.305 15.4876C270.029 15.7635 269.832 16.1378 269.734 16.6107C269.615 17.0837 269.576 17.6748 269.576 18.3447V27.9605C269.576 28.4531 269.339 28.6896 268.847 28.6896H265.596C265.083 28.6896 264.827 28.4531 264.827 27.9605V17.2216C264.827 16.0196 264.965 15.0147 265.221 14.1477C265.477 13.3004 265.931 12.591 266.522 12.059C267.133 11.5073 267.94 11.1132 268.945 10.8571C269.95 10.6009 271.211 10.4827 272.709 10.4827H289.655Z" fill="white"/>
<path d="M70.4043 19.1331L57.8132 30.8178C57.6359 30.9951 57.5768 31.1922 57.6162 31.3892C57.6556 31.606 57.8329 31.7045 58.1482 31.7045H62.3649C62.6014 31.7045 62.7984 31.6651 62.9364 31.606C63.0743 31.5469 63.1925 31.4483 63.3304 31.3104L73.4191 21.9114L70.424 19.1331H70.4043Z" fill="#EDE110"/>
<path d="M79.7833 19.1331L92.3745 30.8178C92.5518 30.9951 92.6109 31.1922 92.5715 31.3892C92.5321 31.606 92.3548 31.7045 92.0395 31.7045H87.8227C87.5863 31.7045 87.3892 31.6651 87.2513 31.606C87.1134 31.5469 86.9952 31.4483 86.8572 31.3104L76.7686 21.9114L79.7636 19.1331H79.7833Z" fill="#EDE110"/>
</svg>
