<svg width="72" height="72" viewBox="0 0 72 72" fill="none" xmlns="http://www.w3.org/2000/svg">
<circle cx="36" cy="36" r="36" fill="#EBDF16"/>
<path d="M33.5 51C33.5 52.3807 34.6193 53.5 36 53.5C37.3807 53.5 38.5 52.3807 38.5 51L33.5 51ZM37.7678 19.2322C36.7915 18.2559 35.2085 18.2559 34.2322 19.2322L18.3223 35.1421C17.346 36.1184 17.346 37.7014 18.3223 38.6777C19.2986 39.654 20.8816 39.654 21.8579 38.6777L36 24.5355L50.1421 38.6777C51.1184 39.654 52.7014 39.654 53.6777 38.6777C54.654 37.7014 54.654 36.1184 53.6777 35.1421L37.7678 19.2322ZM38.5 51L38.5 21L33.5 21L33.5 51L38.5 51Z" fill="black"/>
</svg>
