<svg width="1418" height="1662" viewBox="0 0 1418 1662" fill="none" xmlns="http://www.w3.org/2000/svg">
<path opacity="0.0144928" d="M624.608 262.951C615.414 257.061 603.432 257.966 595.227 265.17L402.68 434.236C397.828 438.496 394.854 444.5 394.405 450.941L368.568 821.415C368.215 826.481 369.444 831.532 372.087 835.868L540.589 1112.4C545.38 1120.27 554.175 1124.78 563.356 1124.09L785.151 1107.33C794.332 1106.64 802.349 1100.85 805.905 1092.36L930.951 793.65C932.912 788.966 933.369 783.788 932.258 778.832L851.059 416.444C849.647 410.143 845.805 404.654 840.368 401.171L624.608 262.951Z" stroke="url(#paint0_linear_10_2121)" stroke-opacity="0.5"/>
<path opacity="0.0289855" d="M665.452 267.683C656.593 261.351 644.617 261.627 636.058 268.36L436.142 425.639C431.06 429.637 427.765 435.483 426.975 441.901L382.03 807.066C381.408 812.121 382.377 817.245 384.802 821.724L537.639 1104C542.017 1112.09 550.555 1117.04 559.748 1116.83L780.766 1111.74C789.959 1111.53 798.26 1106.19 802.261 1097.91L941.932 808.885C944.148 804.299 944.88 799.137 944.026 794.115L882.308 431.408C881.223 425.033 877.662 419.345 872.401 415.585L665.452 267.683Z" stroke="url(#paint1_linear_10_2121)" stroke-opacity="0.5"/>
<path opacity="0.0434783" d="M705.873 273.627C697.369 266.872 685.433 266.522 676.547 272.767L469.965 417.955C464.666 421.679 461.058 427.35 459.928 433.727L396.36 792.607C395.469 797.638 396.173 802.821 398.374 807.432L535.407 1094.58C539.363 1102.87 547.621 1108.25 556.8 1108.52L776.434 1114.96C785.614 1115.23 794.173 1110.34 798.607 1102.3L952.234 823.676C954.701 819.202 955.707 814.068 955.113 808.994L912.687 447.005C911.933 440.573 908.663 434.701 903.592 430.673L705.873 273.627Z" stroke="url(#paint2_linear_10_2121)" stroke-opacity="0.5"/>
<path opacity="0.057971" d="M745.802 280.748C737.673 273.591 725.81 272.62 716.625 278.36L504.09 411.197C498.59 414.634 494.677 420.113 493.21 426.431L411.553 778.086C410.394 783.078 410.829 788.308 412.798 793.04L533.94 1084.19C537.463 1092.66 545.421 1098.45 554.561 1099.2L772.213 1117.01C781.353 1117.76 790.147 1113.34 795 1105.56L961.88 837.989C964.592 833.64 965.872 828.551 965.54 823.437L942.161 463.183C941.741 456.71 938.772 450.668 933.904 446.382L745.802 280.748Z" stroke="url(#paint3_linear_10_2121)" stroke-opacity="0.5"/>
<path opacity="0.0724638" d="M785.181 289.009C777.447 281.47 765.689 279.884 756.234 285.106L538.469 405.37C532.782 408.51 528.576 413.78 526.774 420.022L427.608 763.552C426.183 768.491 426.347 773.753 428.077 778.594L533.286 1072.87C536.369 1081.5 544.005 1087.68 553.082 1088.91L768.167 1117.91C777.244 1119.13 786.245 1115.19 791.502 1107.69L970.902 851.793C973.853 847.584 975.405 842.552 975.338 837.412L970.709 479.885C970.624 473.39 967.964 467.194 963.313 462.659L785.181 289.009Z" stroke="url(#paint4_linear_10_2121)" stroke-opacity="0.5"/>
<path opacity="0.0869565" d="M823.953 298.368C816.632 290.469 805.011 288.278 795.316 292.967L573.049 400.479C567.193 403.313 562.703 408.359 560.571 414.505L444.521 749.05C442.831 753.922 442.722 759.204 444.208 764.142L533.489 1060.69C536.125 1069.45 543.421 1076.01 552.408 1077.7L764.358 1117.67C773.345 1119.37 782.529 1115.91 788.174 1108.72L979.331 865.06C982.514 861.002 984.336 856.044 984.536 850.89L998.307 497.058C998.56 490.556 996.217 484.222 991.794 479.45L823.953 298.368Z" stroke="url(#paint5_linear_10_2121)" stroke-opacity="0.5"/>
<path opacity="0.101449" d="M862.063 308.781C855.171 300.546 843.72 297.758 833.814 301.905L607.779 396.528C601.769 399.044 597.008 403.851 594.55 409.886L462.283 734.627C460.332 739.419 459.947 744.706 461.185 749.73L534.588 1047.69C536.773 1056.56 543.709 1063.48 552.583 1065.64L760.842 1116.33C769.716 1118.49 779.055 1115.53 785.071 1108.66L987.2 877.763C990.607 873.87 992.696 868.998 993.164 863.845L1024.94 514.643C1025.53 508.154 1023.51 501.697 1019.33 496.699L862.063 308.781Z" stroke="url(#paint6_linear_10_2121)" stroke-opacity="0.5"/>
<path opacity="0.115942" d="M899.461 320.202C893.013 311.654 881.761 308.282 871.675 311.877L642.609 393.514C636.461 395.705 631.442 400.258 628.664 406.164L480.885 720.331C478.676 725.028 478.015 730.305 478.999 735.402L536.623 1033.94C538.352 1042.89 544.911 1050.14 553.647 1052.76L757.679 1113.9C766.416 1116.51 775.883 1114.06 782.251 1107.53L994.543 889.875C998.167 886.159 1000.52 881.388 1001.26 876.25L1050.58 532.585C1051.51 526.125 1049.82 519.561 1045.89 514.351L899.461 320.202Z" stroke="url(#paint7_linear_10_2121)" stroke-opacity="0.5"/>
<path opacity="0.130435" d="M936.096 332.581C930.107 323.744 919.085 319.802 908.85 322.837L677.486 391.434C671.219 393.292 665.954 397.578 662.863 403.337L500.314 706.204C497.851 710.793 496.915 716.047 497.641 721.205L539.625 1019.49C540.895 1028.5 547.061 1036.07 555.636 1039.14L754.923 1110.42C763.498 1113.48 773.066 1111.54 779.766 1105.37L1001.39 901.375C1005.23 897.848 1007.83 893.191 1008.84 888.081L1075.24 550.825C1076.5 544.411 1075.15 537.759 1071.48 532.348L936.096 332.581Z" stroke="url(#paint8_linear_10_2121)" stroke-opacity="0.5"/>
<path opacity="0.144928" d="M971.944 345.888C966.426 336.787 955.664 332.289 945.311 334.758L712.381 390.302C706.012 391.821 700.516 395.825 697.119 401.422L520.574 692.311C517.863 696.779 516.651 701.996 517.116 707.201L543.645 1004.42C544.454 1013.47 550.212 1021.34 558.601 1024.85L752.646 1105.94C761.036 1109.44 770.677 1108.01 777.69 1102.22L1007.81 912.261C1011.84 908.934 1014.7 904.406 1015.97 899.338L1098.9 569.326C1100.5 562.976 1099.49 556.252 1096.09 550.653L971.944 345.888Z" stroke="url(#paint9_linear_10_2121)" stroke-opacity="0.5"/>
<path opacity="0.15942" d="M1006.9 360.007C1001.87 350.668 991.394 345.631 980.954 347.53L747.186 390.048C740.734 391.221 735.022 394.932 731.327 400.351L541.591 678.636C538.637 682.968 537.151 688.134 537.351 693.374L548.65 988.734C548.997 997.807 554.333 1005.94 562.516 1009.88L750.84 1100.43C759.023 1104.37 768.71 1103.45 776.013 1098.06L1013.77 922.453C1017.99 919.337 1021.09 914.951 1022.63 909.938L1121.52 587.969C1123.45 581.701 1122.78 574.921 1119.67 569.149L1006.9 360.007Z" stroke="url(#paint10_linear_10_2121)" stroke-opacity="0.5"/>
<path opacity="0.173913" d="M1041 374.945C1036.45 365.393 1026.29 359.836 1015.8 361.162L781.911 390.721C775.394 391.545 769.481 394.95 765.499 400.174L563.402 665.28C560.212 669.464 558.454 674.565 558.388 679.826L554.722 972.558C554.609 981.622 559.509 990.008 567.462 994.359L749.613 1094C757.566 1098.35 767.271 1097.95 774.842 1092.97L1019.37 931.995C1023.76 929.101 1027.11 924.87 1028.91 919.927L1143.15 606.758C1145.4 600.587 1145.08 593.771 1142.25 587.839L1041 374.945Z" stroke="url(#paint11_linear_10_2121)" stroke-opacity="0.5"/>
<path opacity="0.188406" d="M1074.17 390.624C1070.12 380.887 1060.3 374.827 1049.79 375.58L816.491 392.287C809.928 392.757 803.83 395.847 799.57 400.861L585.967 652.262C582.548 656.287 580.521 661.307 580.187 666.577L561.86 955.931C561.288 964.964 565.742 973.576 573.445 978.329L748.99 1086.66C756.692 1091.42 766.387 1091.54 774.204 1086.97L1024.62 940.851C1029.18 938.19 1032.76 934.127 1034.83 929.266L1163.76 625.614C1166.33 619.558 1166.36 612.722 1163.84 606.645L1074.17 390.624Z" stroke="url(#paint12_linear_10_2121)" stroke-opacity="0.5"/>
<path opacity="0.202899" d="M1106.4 407C1102.87 397.103 1093.42 390.563 1082.91 390.744L850.901 394.743C844.311 394.857 838.045 397.62 833.518 402.41L609.285 639.638C605.645 643.489 603.351 648.416 602.749 653.681L570.103 938.932C569.075 947.91 573.073 956.724 580.503 961.866L749.037 1078.48C756.467 1083.62 766.125 1084.25 774.164 1080.13L1029.6 949.024C1034.31 946.605 1038.12 942.721 1040.44 937.957L1183.4 644.495C1186.28 638.57 1186.66 631.732 1184.44 625.525L1106.4 407Z" stroke="url(#paint13_linear_10_2121)" stroke-opacity="0.5"/>
<path opacity="0.217391" d="M1137.63 423.985C1134.61 413.956 1125.55 406.956 1115.08 406.568L885.051 398.042C878.454 397.798 872.037 400.226 867.255 404.777L633.284 627.414C629.431 631.08 626.876 635.901 626.004 641.147L579.415 921.598C577.936 930.497 581.468 939.489 588.608 945.003L749.748 1069.46C756.888 1074.97 766.48 1076.11 774.717 1072.43L1034.29 956.475C1039.14 954.305 1043.16 950.614 1045.73 945.96L1202.01 663.315C1205.2 657.537 1205.93 650.715 1204.02 644.394L1137.63 423.985Z" stroke="url(#paint14_linear_10_2121)" stroke-opacity="0.5"/>
<path opacity="0.231884" d="M1167.86 441.532C1165.36 431.397 1156.71 423.962 1146.31 423.009L918.921 402.178C912.336 401.575 905.786 403.659 900.761 407.958L657.96 615.642C653.903 619.111 651.091 623.811 649.95 629.026L589.827 904.005C587.904 912.804 590.962 921.948 597.792 927.818L751.183 1059.66C758.013 1065.53 767.513 1067.18 775.923 1063.96L1038.75 963.208C1043.73 961.298 1047.96 957.811 1050.78 953.279L1219.63 682.034C1223.12 676.419 1224.2 669.631 1222.62 663.211L1167.86 441.532Z" stroke="url(#paint15_linear_10_2121)" stroke-opacity="0.5"/>
<path opacity="0.246377" d="M1197.04 459.565C1195.05 449.352 1186.84 441.505 1176.54 439.995L952.449 407.112C945.895 406.151 939.231 407.884 933.976 411.917L683.262 604.34C679.012 607.602 675.948 612.168 674.54 617.338L601.324 886.205C598.962 894.88 601.541 904.151 608.043 910.361L753.357 1049.13C759.86 1055.34 769.24 1057.49 777.797 1054.73L1043.01 969.204C1048.11 967.56 1052.53 964.289 1055.59 959.893L1236.26 700.582C1240.04 695.146 1241.47 688.409 1240.21 681.906L1197.04 459.565Z" stroke="url(#paint16_linear_10_2121)" stroke-opacity="0.5"/>
<path opacity="0.26087" d="M1225.21 478.065C1223.75 467.801 1215.99 459.568 1205.82 457.507L985.658 412.863C979.155 411.544 972.394 412.92 966.923 416.676L709.223 593.584C704.789 596.628 701.479 601.047 699.806 606.159L613.969 868.303C611.176 876.832 613.27 886.206 619.428 892.736L756.364 1037.95C762.521 1044.48 771.756 1047.12 780.435 1044.83L1047.16 974.502C1052.36 973.131 1056.97 970.086 1060.26 965.838L1251.97 718.949C1256.04 713.707 1257.81 707.039 1256.88 700.469L1225.21 478.065Z" stroke="url(#paint17_linear_10_2121)" stroke-opacity="0.5"/>
<path opacity="0.275362" d="M1252.28 496.912C1251.34 486.624 1244.05 478.031 1234.05 475.43L1018.43 419.345C1011.99 417.672 1005.15 418.684 999.482 422.151L735.725 583.348C731.118 586.163 727.57 590.422 725.633 595.462L627.673 850.307C624.459 858.669 626.065 868.119 631.862 874.95L760.147 1026.11C765.944 1032.94 775.007 1036.06 783.781 1034.25L1051.16 979.043C1056.45 977.951 1061.23 975.143 1064.76 971.055L1266.71 737.025C1271.05 731.992 1273.16 725.411 1272.55 718.791L1252.28 496.912Z" stroke="url(#paint18_linear_10_2121)" stroke-opacity="0.5"/>
<path opacity="0.289855" d="M1278.33 516.1C1277.91 505.815 1271.11 496.889 1261.3 493.76L1050.8 426.587C1044.46 424.562 1037.56 425.208 1031.7 428.375L762.82 573.715C758.051 576.293 754.272 580.379 752.074 585.334L642.515 832.335C638.889 840.509 640.005 850.01 645.427 857.122L764.817 1013.73C770.239 1020.84 779.104 1024.43 787.948 1023.1L1055.15 982.883C1060.51 982.076 1065.45 979.514 1069.2 975.599L1280.57 754.818C1285.17 750.008 1287.62 743.53 1287.35 736.876L1278.33 516.1Z" stroke="url(#paint19_linear_10_2121)" stroke-opacity="0.5"/>
<path opacity="0.304348" d="M1303.27 535.51C1303.36 525.254 1297.06 516.023 1287.47 512.378L1082.66 434.501C1076.43 432.13 1069.49 432.404 1063.46 435.261L790.386 564.656C785.467 566.986 781.465 570.888 779.01 575.745L658.4 814.392C654.374 822.359 654.999 831.884 660.032 839.257L770.311 1000.8C775.343 1008.17 783.987 1012.22 792.873 1011.37L1059.06 985.968C1064.47 985.451 1069.57 983.145 1073.53 979.413L1293.5 772.222C1298.35 767.647 1301.13 761.29 1301.2 754.619L1303.27 535.51Z" stroke="url(#paint20_linear_10_2121)" stroke-opacity="0.5"/>
<path opacity="0.318841" d="M1327.14 555.121C1327.75 544.922 1321.96 535.415 1312.63 531.268L1114.04 443.097C1107.93 440.385 1100.98 440.286 1094.8 442.824L818.448 556.236C813.393 558.311 809.176 562.016 806.469 566.763L675.376 796.582C670.962 804.321 671.096 813.846 675.728 821.457L776.709 987.411C781.34 995.022 789.738 999.519 798.639 999.155L1063 988.346C1068.46 988.123 1073.69 986.081 1077.85 982.545L1305.58 789.231C1310.68 784.906 1313.78 778.686 1314.18 772.014L1327.14 555.121Z" stroke="url(#paint21_linear_10_2121)" stroke-opacity="0.5"/>
<path opacity="0.333333" d="M1349.96 574.872C1351.08 564.755 1345.82 555.001 1336.76 550.369L1144.91 452.342C1138.94 449.295 1131.99 448.822 1125.67 451.032L846.972 548.479C841.792 550.29 837.371 553.787 834.415 558.41L693.428 778.965C688.638 786.457 688.284 795.956 692.503 803.783L784.029 973.624C788.248 981.452 796.376 986.379 805.267 986.499L1067.01 990.023C1072.5 990.097 1077.85 988.327 1082.21 984.996L1316.86 805.801C1322.18 801.737 1325.61 795.671 1326.34 789.016L1349.96 574.872Z" stroke="url(#paint22_linear_10_2121)" stroke-opacity="0.5"/>
<path opacity="0.347826" d="M1371.67 594.658C1373.28 584.648 1368.57 574.677 1359.8 569.578L1175.17 462.157C1169.37 458.784 1162.44 457.935 1156 459.81L875.853 541.36C870.563 542.9 865.946 546.179 862.748 550.666L712.47 761.555C707.32 768.782 706.48 778.229 710.276 786.251L792.22 959.447C796.015 967.469 803.852 972.812 812.706 973.413L1071.07 990.964C1076.56 991.337 1082.03 989.847 1086.57 986.733L1327.29 821.845C1332.83 818.054 1336.56 812.159 1337.63 805.536L1371.67 594.658Z" stroke="url(#paint23_linear_10_2121)" stroke-opacity="0.5"/>
<path opacity="0.362319" d="M1392.36 614.476C1394.46 604.599 1390.29 594.441 1381.85 588.893L1204.89 472.564C1199.27 468.872 1192.39 467.65 1185.84 469.183L905.139 534.955C899.751 536.217 894.95 539.266 891.516 543.605L732.566 744.465C727.07 751.41 725.75 760.78 729.113 768.973L801.377 944.993C804.74 953.186 812.263 958.926 821.054 960.006L1075.29 991.237C1080.78 991.912 1086.34 990.707 1091.06 987.82L1337 837.38C1342.74 833.873 1346.78 828.164 1348.18 821.591L1392.36 614.476Z" stroke="url(#paint24_linear_10_2121)" stroke-opacity="0.5"/>
<path opacity="0.376812" d="M1411.95 634.209C1414.54 624.489 1410.92 614.174 1402.83 608.198L1233.96 483.468C1228.54 479.467 1221.72 477.872 1215.09 479.058L934.702 529.22C929.231 530.198 924.256 533.008 920.593 537.187L753.602 727.692C747.776 734.339 745.981 743.607 748.905 751.948L811.419 930.257C814.343 938.598 821.532 944.717 830.233 946.27L1079.62 990.797C1085.09 991.774 1090.73 990.861 1095.62 988.21L1345.94 852.31C1351.86 849.097 1356.2 843.59 1357.93 837.083L1411.95 634.209Z" stroke="url(#paint25_linear_10_2121)" stroke-opacity="0.5"/>
<path opacity="0.391304" d="M1430.53 653.842C1433.59 644.302 1430.53 633.862 1422.81 627.479L1262.41 494.873C1257.21 490.574 1250.47 488.61 1243.77 489.444L964.567 524.211C959.028 524.901 953.891 527.462 950.005 531.469L775.615 711.333C769.476 717.665 767.213 726.808 769.692 735.272L822.415 915.338C824.893 923.802 831.73 930.281 840.315 932.301L1084.18 989.701C1089.61 990.98 1095.32 990.365 1100.35 987.958L1354.22 866.641C1360.31 863.732 1364.93 858.441 1366.99 852.016L1430.53 653.842Z" stroke="url(#paint26_linear_10_2121)" stroke-opacity="0.5"/>
<path opacity="0.405797" d="M1448.09 673.302C1451.6 663.967 1449.11 653.432 1441.78 646.664L1290.22 506.727C1285.25 502.141 1278.61 499.811 1271.87 500.289L994.669 519.925C989.077 520.322 983.789 522.624 979.689 526.449L798.549 695.423C792.113 701.426 789.392 710.419 791.42 718.983L834.342 900.273C836.37 908.837 842.834 915.655 851.278 918.135L1088.95 987.95C1094.33 989.53 1100.09 989.218 1105.27 987.064L1361.84 880.325C1368.08 877.729 1372.98 872.668 1375.36 866.342L1448.09 673.302Z" stroke="url(#paint27_linear_10_2121)" stroke-opacity="0.5"/>
<path opacity="0.42029" d="M1464.65 692.536C1468.61 683.427 1466.68 672.827 1459.76 665.699L1317.35 518.988C1312.64 514.128 1306.12 511.438 1299.34 511.556L1024.97 516.37C1019.34 516.469 1013.91 518.505 1009.61 522.136L822.371 680.01C815.658 685.67 812.488 694.49 814.061 703.129L847.2 885.117C848.773 893.756 854.849 900.892 863.126 903.823L1093.99 985.563C1099.3 987.443 1105.1 987.436 1110.4 985.543L1368.86 893.331C1375.24 891.055 1380.4 886.239 1383.1 880.028L1464.65 692.536Z" stroke="url(#paint28_linear_10_2121)" stroke-opacity="0.5"/>
<path opacity="0.434783" d="M1480.23 711.488C1484.63 702.627 1483.26 691.994 1476.77 684.531L1343.81 531.618C1339.35 526.496 1332.98 523.452 1326.19 523.21L1055.42 513.551C1049.77 513.349 1044.22 515.111 1039.72 518.537L847.043 665.139C840.07 670.444 836.461 679.068 837.578 687.758L860.978 869.921C862.095 878.611 867.766 886.043 875.853 889.414L1099.32 982.557C1104.55 984.734 1110.36 985.036 1115.78 983.412L1375.32 905.63C1381.82 903.682 1387.22 899.123 1390.24 893.042L1480.23 711.488Z" stroke="url(#paint29_linear_10_2121)" stroke-opacity="0.5"/>
<path opacity="0.449275" d="M1494.87 730.108C1499.68 721.515 1498.88 710.88 1492.84 703.107L1369.57 544.575C1365.39 539.207 1359.18 535.815 1352.4 535.211L1085.99 511.471C1080.33 510.966 1074.67 512.447 1069.98 515.659L872.526 650.854C865.313 655.792 861.278 664.198 861.937 672.915L875.672 854.737C876.331 863.453 881.583 871.158 889.455 874.957L1104.98 978.955C1110.1 981.425 1115.92 982.039 1121.44 980.689L1381.26 917.196C1387.86 915.581 1393.5 911.294 1396.82 905.359L1494.87 730.108Z" stroke="url(#paint30_linear_10_2121)" stroke-opacity="0.5"/>
<path opacity="0.463768" d="M1508.6 748.346C1513.8 740.041 1513.56 729.433 1507.98 721.377L1394.63 557.819C1390.74 552.218 1384.7 548.487 1377.96 547.522L1116.63 510.131C1110.98 509.322 1105.22 510.514 1100.35 513.502L898.777 637.194C891.345 641.755 886.897 649.923 887.097 658.641L891.268 839.616C891.469 848.334 896.288 856.288 903.923 860.501L1110.98 974.777C1115.98 977.538 1121.79 978.463 1127.4 977.395L1386.73 928.006C1393.42 926.731 1399.28 922.725 1402.9 916.951L1508.6 748.346Z" stroke="url(#paint31_linear_10_2121)" stroke-opacity="0.5"/>
<path opacity="0.478261" d="M1521.44 766.154C1527.02 758.156 1527.33 747.605 1522.22 739.294L1418.97 571.309C1415.39 565.492 1409.55 561.43 1402.85 560.105L1147.3 509.53C1141.67 508.415 1135.83 509.314 1130.79 512.068L925.754 624.199C918.121 628.373 913.275 636.281 913.02 644.976L907.752 824.606C907.497 833.301 911.871 841.48 919.246 846.094L1117.36 970.048C1122.23 973.093 1128.01 974.332 1133.69 973.55L1391.77 938.039C1398.54 937.108 1404.6 933.396 1408.52 927.798L1521.44 766.154Z" stroke="url(#paint32_linear_10_2121)" stroke-opacity="0.5"/>
<path opacity="0.492754" d="M1533.42 783.486C1539.37 775.812 1540.23 765.349 1535.61 756.81L1442.6 585.003C1439.34 578.986 1433.72 574.605 1427.08 572.921L1177.96 509.664C1172.37 508.244 1166.46 508.843 1161.26 511.355L953.41 611.901C945.598 615.68 940.368 623.308 939.66 631.957L925.106 809.756C924.398 818.404 928.317 826.782 935.41 831.781L1124.14 964.792C1128.86 968.115 1134.6 969.668 1140.34 969.176L1396.44 947.277C1403.26 946.694 1409.52 943.287 1413.71 937.879L1533.42 783.486Z" stroke="url(#paint33_linear_10_2121)" stroke-opacity="0.5"/>
<path opacity="0.507246" d="M1544.6 800.301C1550.89 792.968 1552.29 782.621 1548.16 773.883L1465.51 598.862C1462.58 592.661 1457.19 587.972 1450.64 585.932L1208.57 510.527C1203.03 508.802 1197.06 509.097 1191.72 511.359L981.699 600.334C973.73 603.71 968.133 611.041 966.976 619.619L943.311 795.111C942.155 803.689 945.61 812.241 952.401 817.607L1131.36 959.035C1135.91 962.631 1141.58 964.496 1147.38 964.299L1400.78 955.708C1407.63 955.475 1414.07 952.382 1418.54 947.178L1544.6 800.301Z" stroke="url(#paint34_linear_10_2121)" stroke-opacity="0.5"/>
<path opacity="0.521739" d="M1555 816.558C1561.62 809.581 1563.54 799.379 1559.92 790.471L1487.7 612.844C1485.11 606.478 1479.97 601.492 1473.53 599.101L1239.08 512.111C1233.62 510.083 1227.61 510.07 1222.14 512.074L1010.57 589.526C1002.47 592.493 996.52 599.509 994.92 607.992L962.346 780.717C960.746 789.201 963.729 797.9 970.198 803.616L1139.02 952.805C1143.39 956.664 1148.99 958.84 1154.82 958.942L1404.84 963.318C1411.71 963.438 1418.32 960.667 1423.05 955.681L1555 816.558Z" stroke="url(#paint35_linear_10_2121)" stroke-opacity="0.5"/>
<path opacity="0.536232" d="M1564.66 832.219C1571.58 825.613 1574.03 815.582 1570.92 806.534L1509.18 626.909C1506.94 620.397 1502.06 615.127 1495.74 612.39L1269.47 514.405C1264.09 512.077 1258.06 511.752 1252.46 513.49L1039.98 579.502C1031.76 582.056 1025.48 588.739 1023.44 597.104L982.185 766.617C980.148 774.982 982.653 783.803 988.781 789.85L1147.16 946.129C1151.33 950.244 1156.83 952.728 1162.68 953.131L1408.68 970.098C1415.55 970.572 1422.3 968.132 1427.28 963.377L1564.66 832.219Z" stroke="url(#paint36_linear_10_2121)" stroke-opacity="0.5"/>
<path opacity="0.550725" d="M1573.64 847.25C1580.84 841.027 1583.78 831.196 1581.19 822.038L1529.93 641.019C1528.05 634.378 1523.46 628.839 1517.28 625.762L1299.68 517.397C1294.4 514.771 1288.36 514.133 1282.66 515.599L1069.87 570.286C1061.55 572.423 1054.96 578.757 1052.5 586.982L1002.8 752.851C1000.33 761.076 1002.36 769.991 1008.13 776.349L1155.78 939.036C1159.74 943.398 1165.14 946.187 1170.99 946.894L1412.33 976.043C1419.18 976.871 1426.06 974.77 1431.28 970.258L1573.64 847.25Z" stroke="url(#paint37_linear_10_2121)" stroke-opacity="0.5"/>
<path opacity="0.565217" d="M1581.97 861.619C1589.43 855.791 1592.86 846.185 1590.79 836.946L1549.99 655.133C1548.48 648.385 1544.18 642.59 1538.16 639.181L1329.69 521.072C1324.53 518.153 1318.5 517.199 1312.69 518.387L1100.19 561.896C1091.8 563.614 1084.92 569.586 1082.04 577.648L1024.17 739.459C1021.28 747.521 1022.82 756.503 1028.21 763.151L1164.92 931.557C1168.65 936.155 1173.93 939.245 1179.76 940.256L1415.85 981.15C1422.67 982.331 1429.67 980.576 1435.12 976.318L1581.97 861.619Z" stroke="url(#paint38_linear_10_2121)" stroke-opacity="0.5"/>
<path opacity="0.57971" d="M1589.69 875.296C1597.39 869.874 1601.3 860.518 1599.75 851.229L1569.35 669.215C1568.2 662.378 1564.22 656.344 1558.38 652.61L1359.45 525.414C1354.43 522.206 1348.42 520.935 1342.53 521.84L1130.89 554.35C1122.46 555.646 1115.3 561.242 1112.01 569.119L1046.25 726.477C1042.96 734.354 1044 743.377 1049.01 750.292L1174.58 923.721C1178.08 928.544 1183.21 931.931 1189.02 933.247L1419.3 985.419C1426.06 986.95 1433.15 985.547 1438.82 981.555L1589.69 875.296Z" stroke="url(#paint39_linear_10_2121)" stroke-opacity="0.5"/>
<path opacity="0.594203" d="M1596.87 888.256C1604.78 883.248 1609.15 874.167 1608.12 864.858L1588.01 683.226C1587.25 676.321 1583.59 670.065 1577.95 666.015L1388.93 530.404C1384.06 526.913 1378.09 525.325 1372.13 525.941L1161.92 547.66C1153.46 548.535 1146.05 553.742 1142.36 561.413L1069.02 713.941C1065.33 721.613 1065.89 730.649 1070.49 737.809L1184.79 915.56C1188.03 920.597 1193 924.274 1198.76 925.895L1422.71 988.852C1429.4 990.732 1436.57 989.685 1442.44 985.97L1596.87 888.256Z" stroke="url(#paint40_linear_10_2121)" stroke-opacity="0.5"/>
<path opacity="0.608696" d="M1603.53 900.476C1611.64 895.891 1616.44 887.106 1615.93 877.807L1606 697.131C1605.62 690.179 1602.3 683.717 1596.87 679.361L1418.1 536.022C1413.4 532.254 1407.48 530.349 1401.46 530.671L1193.22 541.835C1184.75 542.29 1177.11 547.097 1173.04 554.542L1092.44 701.884C1088.37 709.329 1088.44 718.352 1092.63 725.732L1195.54 907.105C1198.51 912.344 1203.31 916.304 1209.02 918.229L1426.14 991.455C1432.74 993.68 1439.97 992.993 1446.04 989.565L1603.53 900.476Z" stroke="url(#paint41_linear_10_2121)" stroke-opacity="0.5"/>
<path opacity="0.623188" d="M1609.74 911.935C1618.02 907.779 1623.24 899.313 1623.25 890.053L1623.34 710.895C1623.34 703.916 1620.37 697.266 1615.16 692.616L1446.92 542.245C1442.4 538.207 1436.55 535.987 1430.49 536.012L1224.74 536.884C1216.28 536.919 1208.44 541.317 1204 548.517L1116.48 690.334C1112.04 697.534 1111.62 706.516 1115.38 714.094L1206.86 898.388C1209.55 903.816 1214.16 908.052 1219.8 910.28L1429.64 993.236C1436.13 995.802 1443.41 995.478 1449.64 992.346L1609.74 911.935Z" stroke="url(#paint42_linear_10_2121)" stroke-opacity="0.5"/>
<path opacity="0.637681" d="M1615.55 922.616C1623.97 918.895 1629.59 910.768 1630.1 901.577L1640.02 724.483C1640.41 717.499 1637.8 710.68 1632.84 705.746L1475.37 549.05C1471.05 544.75 1465.28 542.216 1459.19 541.941L1256.43 532.808C1248.01 532.428 1239.98 536.408 1235.18 543.343L1141.1 679.321C1136.3 686.256 1135.4 695.171 1138.73 702.921L1218.75 889.443C1221.15 895.045 1225.56 899.549 1231.1 902.077L1433.25 994.207C1439.62 997.108 1446.92 997.15 1453.32 994.322L1615.55 922.616Z" stroke="url(#paint43_linear_10_2121)" stroke-opacity="0.5"/>
<path opacity="0.652174" d="M1620.99 932.507C1629.53 929.224 1635.53 921.456 1636.55 912.362L1656.08 737.863C1656.86 730.895 1654.61 723.927 1649.92 718.722L1503.41 556.41C1499.3 551.858 1493.63 549.012 1487.52 548.435L1288.23 529.608C1279.87 528.818 1271.68 532.372 1266.54 539.024L1166.26 668.869C1161.12 675.522 1159.75 684.343 1162.63 692.239L1231.22 880.3C1233.32 886.062 1237.5 890.826 1242.95 893.651L1437.02 994.381C1443.24 997.611 1450.55 998.02 1457.09 995.504L1620.99 932.507Z" stroke="url(#paint44_linear_10_2121)" stroke-opacity="0.5"/>
<path opacity="0.666667" d="M1626.13 941.595C1634.77 938.754 1641.12 931.361 1642.63 922.394L1671.53 751.004C1672.69 744.074 1670.83 736.976 1666.41 731.514L1531.01 564.3C1527.13 559.504 1521.57 556.35 1515.47 555.469L1320.1 527.283C1311.8 526.086 1303.48 529.209 1298.02 535.562L1191.92 659.002C1186.46 665.355 1184.62 674.057 1187.05 682.074L1244.27 870.994C1246.05 876.9 1250.01 881.914 1255.33 885.033L1440.99 993.774C1447.05 997.325 1454.35 998.102 1461.03 995.906L1626.13 941.595Z" stroke="url(#paint45_linear_10_2121)" stroke-opacity="0.5"/>
<path opacity="0.681159" d="M1631.01 949.874C1639.72 947.475 1646.41 940.475 1648.4 931.662L1686.39 763.876C1687.94 757.005 1686.46 749.797 1682.33 744.092L1558.15 572.691C1554.51 567.662 1549.09 564.204 1542.99 563.017L1351.97 525.824C1343.77 524.229 1335.33 526.915 1329.57 532.952L1218.04 649.74C1212.27 655.777 1209.98 664.334 1211.95 672.445L1257.9 861.555C1259.37 867.59 1263.07 872.843 1268.27 876.252L1445.2 992.405C1451.09 996.271 1458.36 997.414 1465.15 995.544L1631.01 949.874Z" stroke="url(#paint46_linear_10_2121)" stroke-opacity="0.5"/>
<path opacity="0.695652" d="M1635.69 957.338C1644.45 955.382 1651.44 948.79 1653.91 940.158L1700.68 776.45C1702.62 769.661 1701.54 762.364 1697.71 756.431L1584.8 581.553C1581.41 576.301 1576.14 572.544 1570.07 571.051L1383.79 525.224C1375.72 523.237 1367.18 525.484 1361.13 531.191L1244.58 641.1C1238.53 646.807 1235.79 655.194 1237.3 663.373L1272.13 852.018C1273.26 858.166 1276.71 863.647 1281.75 867.339L1449.71 990.295C1455.41 994.466 1462.63 995.976 1469.52 994.437L1635.69 957.338Z" stroke="url(#paint47_linear_10_2121)" stroke-opacity="0.5"/>
<path opacity="0.710145" d="M1640.21 963.987C1649 962.472 1656.27 956.301 1659.19 947.876L1714.43 788.701C1716.76 782.013 1716.07 774.649 1712.56 768.505L1610.95 590.855C1607.83 585.393 1602.72 581.342 1596.69 579.542L1415.53 525.471C1407.59 523.101 1398.99 524.906 1392.67 530.268L1271.51 633.098C1265.19 638.46 1262.01 646.652 1263.06 654.873L1286.94 842.414C1287.74 848.657 1290.91 854.354 1295.79 858.325L1454.55 987.468C1460.04 991.935 1467.19 993.809 1474.17 992.606L1640.21 963.987Z" stroke="url(#paint48_linear_10_2121)" stroke-opacity="0.5"/>
<path opacity="0.724638" d="M1644.62 969.821C1653.41 968.745 1660.94 963.007 1664.31 954.814L1727.67 800.602C1730.37 794.039 1730.09 786.628 1726.9 780.288L1636.57 600.565C1633.72 594.905 1628.8 590.566 1622.82 588.461L1447.13 526.55C1439.34 523.806 1430.7 525.168 1424.13 530.173L1298.77 625.745C1292.2 630.75 1288.6 638.725 1289.18 646.96L1302.34 832.776C1302.79 839.095 1305.67 844.996 1310.37 849.239L1459.75 983.95C1465.02 988.702 1472.09 990.936 1479.13 990.074L1644.62 969.821Z" stroke="url(#paint49_linear_10_2121)" stroke-opacity="0.5"/>
<path opacity="0.73913" d="M1648.98 974.845C1657.75 974.204 1665.51 968.91 1669.3 960.973L1740.42 812.131C1743.49 805.712 1743.61 798.278 1740.76 791.759L1661.64 610.651C1659.08 604.805 1654.35 600.186 1648.44 597.776L1478.54 528.443C1470.92 525.336 1462.26 526.256 1455.47 530.892L1326.32 619.052C1319.53 623.689 1315.52 631.423 1315.64 639.645L1318.33 823.134C1318.42 829.513 1321 835.603 1325.51 840.111L1465.36 979.767C1470.39 984.794 1477.36 987.384 1484.46 986.866L1648.98 974.845Z" stroke="url(#paint50_linear_10_2121)" stroke-opacity="0.5"/>
<path opacity="0.753623" d="M1653.33 979.067C1662.06 978.856 1670.02 974.014 1674.22 966.356L1752.7 823.266C1756.13 817.013 1756.67 809.577 1754.17 802.898L1686.14 621.079C1683.89 615.061 1679.36 610.169 1673.54 607.456L1509.71 531.13C1502.28 527.671 1493.62 528.151 1486.63 532.408L1354.14 613.027C1347.14 617.284 1342.73 624.756 1342.39 632.939L1334.89 813.521C1334.62 819.94 1336.89 826.207 1341.2 830.972L1471.41 974.951C1476.2 980.24 1483.05 983.182 1490.18 983.01L1653.33 979.067Z" stroke="url(#paint51_linear_10_2121)" stroke-opacity="0.5"/>
<path opacity="0.768116" d="M1657.72 982.496C1666.38 982.709 1674.52 978.326 1679.11 970.97L1764.55 833.986C1768.33 827.921 1769.28 820.505 1767.14 813.684L1710.06 631.813C1708.12 625.639 1703.82 620.482 1698.09 617.468L1540.6 534.588C1533.38 530.789 1524.75 530.832 1517.57 534.701L1382.16 607.673C1374.98 611.542 1370.2 618.731 1369.4 626.848L1352.02 803.966C1351.39 810.406 1353.33 816.835 1357.42 821.848L1477.94 969.532C1482.46 975.071 1489.17 978.359 1496.32 978.535L1657.72 982.496Z" stroke="url(#paint52_linear_10_2121)" stroke-opacity="0.5"/>
<path opacity="0.782609" d="M1662.19 985.146C1670.77 985.775 1679.05 981.856 1684.01 974.823L1775.99 844.276C1780.12 838.417 1781.47 831.044 1779.7 824.1L1733.38 642.82C1731.77 636.503 1727.71 631.091 1722.09 627.78L1571.17 538.792C1564.18 534.667 1555.59 534.277 1548.25 537.75L1410.35 602.993C1403.01 606.466 1397.87 613.352 1396.62 621.377L1369.71 794.5C1368.71 800.941 1370.32 807.517 1374.18 812.77L1484.97 963.544C1489.21 969.32 1495.77 972.947 1502.92 973.471L1662.19 985.146Z" stroke="url(#paint53_linear_10_2121)" stroke-opacity="0.5"/>
<path opacity="0.797101" d="M1666.79 987.031C1675.27 988.068 1683.67 984.618 1688.97 977.926L1787.05 854.117C1791.51 848.485 1793.28 841.178 1791.88 834.13L1756.11 654.063C1754.83 647.62 1751.01 641.961 1745.52 638.356L1601.38 543.714C1594.62 539.277 1586.11 538.46 1578.63 541.53L1438.67 598.987C1431.19 602.057 1425.71 608.621 1424.02 616.527L1387.96 785.151C1386.58 791.575 1387.85 798.28 1391.46 803.764L1492.54 957.022C1496.49 963.02 1502.88 966.98 1510.01 967.852L1666.79 987.031Z" stroke="url(#paint54_linear_10_2121)" stroke-opacity="0.5"/>
<path opacity="0.811594" d="M1671.57 988.171C1679.92 989.606 1688.42 986.627 1694.04 980.294L1797.77 863.496C1802.55 858.109 1804.72 850.891 1803.7 843.76L1778.21 665.506C1777.28 658.953 1773.73 653.058 1768.38 649.163L1631.18 549.325C1624.68 544.589 1616.26 543.352 1608.66 546.015L1467.08 595.651C1459.49 598.314 1453.68 604.537 1451.56 612.3L1406.74 775.95C1404.99 782.334 1405.9 789.154 1409.26 794.857L1500.66 950.002C1504.32 956.208 1510.52 960.491 1517.62 961.712L1671.57 988.171Z" stroke="url(#paint55_linear_10_2121)" stroke-opacity="0.5"/>
<path opacity="0.826087" d="M1676.57 988.585C1684.77 990.407 1693.33 987.9 1699.25 981.942L1808.16 872.401C1813.26 867.279 1815.83 860.171 1815.2 852.977L1799.7 677.113C1799.12 670.467 1795.85 664.347 1790.65 660.168L1660.55 555.593C1654.31 550.574 1646 548.925 1638.32 551.176L1495.54 592.981C1487.85 595.232 1481.75 601.099 1479.2 608.693L1426.05 766.922C1423.93 773.246 1424.47 780.164 1427.57 786.076L1509.37 942.522C1512.72 948.922 1518.72 953.519 1525.77 955.085L1676.57 988.585Z" stroke="url(#paint56_linear_10_2121)" stroke-opacity="0.5"/>
<path opacity="0.84058" d="M1681.82 988.296C1689.85 990.494 1698.45 988.457 1704.65 982.89L1818.27 880.82C1823.66 875.981 1826.63 869.007 1826.39 861.77L1820.57 688.848C1820.34 682.126 1817.36 675.793 1812.33 671.333L1689.44 562.483C1683.48 557.197 1675.31 555.145 1667.55 556.982L1524 590.969C1516.25 592.805 1509.87 598.301 1506.9 605.701L1445.87 758.094C1443.37 764.338 1443.55 771.335 1446.36 777.445L1518.69 934.62C1521.72 941.198 1527.5 946.1 1534.49 948.01L1681.82 988.296Z" stroke="url(#paint57_linear_10_2121)" stroke-opacity="0.5"/>
<defs>
<linearGradient id="paint0_linear_10_2121" x1="609.035" y1="252.381" x2="680.265" y2="1195.29" gradientUnits="userSpaceOnUse">
<stop stop-color="#EBDF16"/>
<stop offset="0.489583" stop-color="#535353"/>
</linearGradient>
<linearGradient id="paint1_linear_10_2121" x1="650.487" y1="256.373" x2="672.079" y2="1193.37" gradientUnits="userSpaceOnUse">
<stop stop-color="#EBDF16"/>
<stop offset="0.489583" stop-color="#535353"/>
</linearGradient>
<linearGradient id="paint2_linear_10_2121" x1="691.55" y1="261.611" x2="664.319" y2="1190.12" gradientUnits="userSpaceOnUse">
<stop stop-color="#EBDF16"/>
<stop offset="0.489583" stop-color="#535353"/>
</linearGradient>
<linearGradient id="paint3_linear_10_2121" x1="732.154" y1="268.065" x2="657.047" y2="1185.55" gradientUnits="userSpaceOnUse">
<stop stop-color="#EBDF16"/>
<stop offset="0.489583" stop-color="#535353"/>
</linearGradient>
<linearGradient id="paint4_linear_10_2121" x1="772.24" y1="275.695" x2="650.333" y2="1179.72" gradientUnits="userSpaceOnUse">
<stop stop-color="#EBDF16"/>
<stop offset="0.489583" stop-color="#535353"/>
</linearGradient>
<linearGradient id="paint5_linear_10_2121" x1="811.747" y1="284.464" x2="644.241" y2="1172.67" gradientUnits="userSpaceOnUse">
<stop stop-color="#EBDF16"/>
<stop offset="0.489583" stop-color="#535353"/>
</linearGradient>
<linearGradient id="paint6_linear_10_2121" x1="850.62" y1="294.328" x2="638.832" y2="1164.44" gradientUnits="userSpaceOnUse">
<stop stop-color="#EBDF16"/>
<stop offset="0.489583" stop-color="#535353"/>
</linearGradient>
<linearGradient id="paint7_linear_10_2121" x1="888.803" y1="305.242" x2="634.163" y2="1155.09" gradientUnits="userSpaceOnUse">
<stop stop-color="#EBDF16"/>
<stop offset="0.489583" stop-color="#535353"/>
</linearGradient>
<linearGradient id="paint8_linear_10_2121" x1="926.247" y1="317.157" x2="630.289" y2="1144.65" gradientUnits="userSpaceOnUse">
<stop stop-color="#EBDF16"/>
<stop offset="0.489583" stop-color="#535353"/>
</linearGradient>
<linearGradient id="paint9_linear_10_2121" x1="962.923" y1="330.044" x2="627.281" y2="1133.21" gradientUnits="userSpaceOnUse">
<stop stop-color="#EBDF16"/>
<stop offset="0.489583" stop-color="#535353"/>
</linearGradient>
<linearGradient id="paint10_linear_10_2121" x1="998.728" y1="343.789" x2="625.127" y2="1120.77" gradientUnits="userSpaceOnUse">
<stop stop-color="#EBDF16"/>
<stop offset="0.489583" stop-color="#535353"/>
</linearGradient>
<linearGradient id="paint11_linear_10_2121" x1="1033.68" y1="358.398" x2="623.932" y2="1107.44" gradientUnits="userSpaceOnUse">
<stop stop-color="#EBDF16"/>
<stop offset="0.489583" stop-color="#535353"/>
</linearGradient>
<linearGradient id="paint12_linear_10_2121" x1="1067.72" y1="373.795" x2="623.716" y2="1093.26" gradientUnits="userSpaceOnUse">
<stop stop-color="#EBDF16"/>
<stop offset="0.489583" stop-color="#535353"/>
</linearGradient>
<linearGradient id="paint13_linear_10_2121" x1="1100.84" y1="389.935" x2="624.538" y2="1078.32" gradientUnits="userSpaceOnUse">
<stop stop-color="#EBDF16"/>
<stop offset="0.489583" stop-color="#535353"/>
</linearGradient>
<linearGradient id="paint14_linear_10_2121" x1="1132.96" y1="406.73" x2="626.386" y2="1062.64" gradientUnits="userSpaceOnUse">
<stop stop-color="#EBDF16"/>
<stop offset="0.489583" stop-color="#535353"/>
</linearGradient>
<linearGradient id="paint15_linear_10_2121" x1="1164.08" y1="424.135" x2="629.31" y2="1046.3" gradientUnits="userSpaceOnUse">
<stop stop-color="#EBDF16"/>
<stop offset="0.489583" stop-color="#535353"/>
</linearGradient>
<linearGradient id="paint16_linear_10_2121" x1="1194.15" y1="442.073" x2="633.318" y2="1029.36" gradientUnits="userSpaceOnUse">
<stop stop-color="#EBDF16"/>
<stop offset="0.489583" stop-color="#535353"/>
</linearGradient>
<linearGradient id="paint17_linear_10_2121" x1="1223.22" y1="460.524" x2="638.491" y2="1011.93" gradientUnits="userSpaceOnUse">
<stop stop-color="#EBDF16"/>
<stop offset="0.489583" stop-color="#535353"/>
</linearGradient>
<linearGradient id="paint18_linear_10_2121" x1="1251.18" y1="479.369" x2="644.762" y2="994.018" gradientUnits="userSpaceOnUse">
<stop stop-color="#EBDF16"/>
<stop offset="0.489583" stop-color="#535353"/>
</linearGradient>
<linearGradient id="paint19_linear_10_2121" x1="1278.12" y1="498.601" x2="652.231" y2="975.747" gradientUnits="userSpaceOnUse">
<stop stop-color="#EBDF16"/>
<stop offset="0.489583" stop-color="#535353"/>
</linearGradient>
<linearGradient id="paint20_linear_10_2121" x1="1303.93" y1="518.1" x2="660.82" y2="957.13" gradientUnits="userSpaceOnUse">
<stop stop-color="#EBDF16"/>
<stop offset="0.489583" stop-color="#535353"/>
</linearGradient>
<linearGradient id="paint21_linear_10_2121" x1="1328.67" y1="537.846" x2="670.598" y2="938.278" gradientUnits="userSpaceOnUse">
<stop stop-color="#EBDF16"/>
<stop offset="0.489583" stop-color="#535353"/>
</linearGradient>
<linearGradient id="paint22_linear_10_2121" x1="1352.35" y1="557.775" x2="681.567" y2="919.259" gradientUnits="userSpaceOnUse">
<stop stop-color="#EBDF16"/>
<stop offset="0.489583" stop-color="#535353"/>
</linearGradient>
<linearGradient id="paint23_linear_10_2121" x1="1374.9" y1="577.783" x2="693.66" y2="900.095" gradientUnits="userSpaceOnUse">
<stop stop-color="#EBDF16"/>
<stop offset="0.489583" stop-color="#535353"/>
</linearGradient>
<linearGradient id="paint24_linear_10_2121" x1="1396.41" y1="597.864" x2="706.958" y2="880.912" gradientUnits="userSpaceOnUse">
<stop stop-color="#EBDF16"/>
<stop offset="0.489583" stop-color="#535353"/>
</linearGradient>
<linearGradient id="paint25_linear_10_2121" x1="1416.81" y1="617.901" x2="721.363" y2="861.717" gradientUnits="userSpaceOnUse">
<stop stop-color="#EBDF16"/>
<stop offset="0.489583" stop-color="#535353"/>
</linearGradient>
<linearGradient id="paint26_linear_10_2121" x1="1436.17" y1="637.878" x2="736.928" y2="842.617" gradientUnits="userSpaceOnUse">
<stop stop-color="#EBDF16"/>
<stop offset="0.489583" stop-color="#535353"/>
</linearGradient>
<linearGradient id="paint27_linear_10_2121" x1="1454.49" y1="657.72" x2="753.611" y2="823.661" gradientUnits="userSpaceOnUse">
<stop stop-color="#EBDF16"/>
<stop offset="0.489583" stop-color="#535353"/>
</linearGradient>
<linearGradient id="paint28_linear_10_2121" x1="1471.79" y1="677.372" x2="771.396" y2="804.909" gradientUnits="userSpaceOnUse">
<stop stop-color="#EBDF16"/>
<stop offset="0.489583" stop-color="#535353"/>
</linearGradient>
<linearGradient id="paint29_linear_10_2121" x1="1488.08" y1="696.779" x2="790.255" y2="786.422" gradientUnits="userSpaceOnUse">
<stop stop-color="#EBDF16"/>
<stop offset="0.489583" stop-color="#535353"/>
</linearGradient>
<linearGradient id="paint30_linear_10_2121" x1="1503.4" y1="715.886" x2="810.163" y2="768.256" gradientUnits="userSpaceOnUse">
<stop stop-color="#EBDF16"/>
<stop offset="0.489583" stop-color="#535353"/>
</linearGradient>
<linearGradient id="paint31_linear_10_2121" x1="1517.78" y1="734.643" x2="831.09" y2="750.467" gradientUnits="userSpaceOnUse">
<stop stop-color="#EBDF16"/>
<stop offset="0.489583" stop-color="#535353"/>
</linearGradient>
<linearGradient id="paint32_linear_10_2121" x1="1531.24" y1="752.999" x2="853.002" y2="733.108" gradientUnits="userSpaceOnUse">
<stop stop-color="#EBDF16"/>
<stop offset="0.489583" stop-color="#535353"/>
</linearGradient>
<linearGradient id="paint33_linear_10_2121" x1="1543.81" y1="770.909" x2="875.864" y2="716.23" gradientUnits="userSpaceOnUse">
<stop stop-color="#EBDF16"/>
<stop offset="0.489583" stop-color="#535353"/>
</linearGradient>
<linearGradient id="paint34_linear_10_2121" x1="1555.53" y1="788.327" x2="899.638" y2="699.88" gradientUnits="userSpaceOnUse">
<stop stop-color="#EBDF16"/>
<stop offset="0.489583" stop-color="#535353"/>
</linearGradient>
<linearGradient id="paint35_linear_10_2121" x1="1566.45" y1="805.21" x2="924.283" y2="684.105" gradientUnits="userSpaceOnUse">
<stop stop-color="#EBDF16"/>
<stop offset="0.489583" stop-color="#535353"/>
</linearGradient>
<linearGradient id="paint36_linear_10_2121" x1="1576.6" y1="821.52" x2="949.755" y2="668.946" gradientUnits="userSpaceOnUse">
<stop stop-color="#EBDF16"/>
<stop offset="0.489583" stop-color="#535353"/>
</linearGradient>
<linearGradient id="paint37_linear_10_2121" x1="1586.01" y1="837.219" x2="976.008" y2="654.444" gradientUnits="userSpaceOnUse">
<stop stop-color="#EBDF16"/>
<stop offset="0.489583" stop-color="#535353"/>
</linearGradient>
<linearGradient id="paint38_linear_10_2121" x1="1594.74" y1="852.274" x2="1003" y2="640.634" gradientUnits="userSpaceOnUse">
<stop stop-color="#EBDF16"/>
<stop offset="0.489583" stop-color="#535353"/>
</linearGradient>
<linearGradient id="paint39_linear_10_2121" x1="1602.83" y1="866.653" x2="1030.68" y2="627.552" gradientUnits="userSpaceOnUse">
<stop stop-color="#EBDF16"/>
<stop offset="0.489583" stop-color="#535353"/>
</linearGradient>
<linearGradient id="paint40_linear_10_2121" x1="1610.33" y1="880.327" x2="1059" y2="615.226" gradientUnits="userSpaceOnUse">
<stop stop-color="#EBDF16"/>
<stop offset="0.489583" stop-color="#535353"/>
</linearGradient>
<linearGradient id="paint41_linear_10_2121" x1="1617.28" y1="893.272" x2="1087.9" y2="603.685" gradientUnits="userSpaceOnUse">
<stop stop-color="#EBDF16"/>
<stop offset="0.489583" stop-color="#535353"/>
</linearGradient>
<linearGradient id="paint42_linear_10_2121" x1="1623.74" y1="905.465" x2="1117.34" y2="592.952" gradientUnits="userSpaceOnUse">
<stop stop-color="#EBDF16"/>
<stop offset="0.489583" stop-color="#535353"/>
</linearGradient>
<linearGradient id="paint43_linear_10_2121" x1="1629.75" y1="916.887" x2="1147.26" y2="583.048" gradientUnits="userSpaceOnUse">
<stop stop-color="#EBDF16"/>
<stop offset="0.489583" stop-color="#535353"/>
</linearGradient>
<linearGradient id="paint44_linear_10_2121" x1="1635.36" y1="927.521" x2="1177.61" y2="573.99" gradientUnits="userSpaceOnUse">
<stop stop-color="#EBDF16"/>
<stop offset="0.489583" stop-color="#535353"/>
</linearGradient>
<linearGradient id="paint45_linear_10_2121" x1="1640.62" y1="937.355" x2="1208.33" y2="565.793" gradientUnits="userSpaceOnUse">
<stop stop-color="#EBDF16"/>
<stop offset="0.489583" stop-color="#535353"/>
</linearGradient>
<linearGradient id="paint46_linear_10_2121" x1="1645.58" y1="946.38" x2="1239.37" y2="558.466" gradientUnits="userSpaceOnUse">
<stop stop-color="#EBDF16"/>
<stop offset="0.489583" stop-color="#535353"/>
</linearGradient>
<linearGradient id="paint47_linear_10_2121" x1="1650.3" y1="954.587" x2="1270.67" y2="552.018" gradientUnits="userSpaceOnUse">
<stop stop-color="#EBDF16"/>
<stop offset="0.489583" stop-color="#535353"/>
</linearGradient>
<linearGradient id="paint48_linear_10_2121" x1="1654.83" y1="961.974" x2="1302.19" y2="546.451" gradientUnits="userSpaceOnUse">
<stop stop-color="#EBDF16"/>
<stop offset="0.489583" stop-color="#535353"/>
</linearGradient>
<linearGradient id="paint49_linear_10_2121" x1="1659.21" y1="968.54" x2="1333.86" y2="541.768" gradientUnits="userSpaceOnUse">
<stop stop-color="#EBDF16"/>
<stop offset="0.489583" stop-color="#535353"/>
</linearGradient>
<linearGradient id="paint50_linear_10_2121" x1="1663.49" y1="974.286" x2="1365.63" y2="537.965" gradientUnits="userSpaceOnUse">
<stop stop-color="#EBDF16"/>
<stop offset="0.489583" stop-color="#535353"/>
</linearGradient>
<linearGradient id="paint51_linear_10_2121" x1="1667.73" y1="979.219" x2="1397.45" y2="535.036" gradientUnits="userSpaceOnUse">
<stop stop-color="#EBDF16"/>
<stop offset="0.489583" stop-color="#535353"/>
</linearGradient>
<linearGradient id="paint52_linear_10_2121" x1="1671.98" y1="983.346" x2="1429.27" y2="532.974" gradientUnits="userSpaceOnUse">
<stop stop-color="#EBDF16"/>
<stop offset="0.489583" stop-color="#535353"/>
</linearGradient>
<linearGradient id="paint53_linear_10_2121" x1="1676.27" y1="986.679" x2="1461.03" y2="531.766" gradientUnits="userSpaceOnUse">
<stop stop-color="#EBDF16"/>
<stop offset="0.489583" stop-color="#535353"/>
</linearGradient>
<linearGradient id="paint54_linear_10_2121" x1="1680.66" y1="989.231" x2="1492.7" y2="531.397" gradientUnits="userSpaceOnUse">
<stop stop-color="#EBDF16"/>
<stop offset="0.489583" stop-color="#535353"/>
</linearGradient>
<linearGradient id="paint55_linear_10_2121" x1="1685.18" y1="991.018" x2="1524.21" y2="531.851" gradientUnits="userSpaceOnUse">
<stop stop-color="#EBDF16"/>
<stop offset="0.489583" stop-color="#535353"/>
</linearGradient>
<linearGradient id="paint56_linear_10_2121" x1="1689.9" y1="992.059" x2="1555.52" y2="533.106" gradientUnits="userSpaceOnUse">
<stop stop-color="#EBDF16"/>
<stop offset="0.489583" stop-color="#535353"/>
</linearGradient>
<linearGradient id="paint57_linear_10_2121" x1="1694.84" y1="992.376" x2="1586.58" y2="535.14" gradientUnits="userSpaceOnUse">
<stop stop-color="#EBDF16"/>
<stop offset="0.489583" stop-color="#535353"/>
</linearGradient>
</defs>
</svg>
